<svg xmlns="http://www.w3.org/2000/svg" xmlns:xlink="http://www.w3.org/1999/xlink" width="67" zoomAndPan="magnify" viewBox="0 0 50.25 46.5" height="62" preserveAspectRatio="xMidYMid meet" version="1.0"><defs><clipPath id="d47bedf3b1"><path d="M 5 10 L 45.964844 10 L 45.964844 38.710938 L 5 38.710938 Z M 5 10 " clip-rule="nonzero"/></clipPath><clipPath id="c48bb951c8"><path d="M 21 6.199219 L 30 6.199219 L 30 15 L 21 15 Z M 21 6.199219 " clip-rule="nonzero"/></clipPath><clipPath id="5ec48a133c"><path d="M 4.582031 6.199219 L 45.964844 6.199219 L 45.964844 38.710938 L 4.582031 38.710938 Z M 4.582031 6.199219 " clip-rule="nonzero"/></clipPath></defs><g clip-path="url(#d47bedf3b1)"><path fill="#aae6fa" d="M 8.589844 10.921875 L 41.957031 10.921875 C 43.839844 10.921875 45.378906 12.457031 45.378906 14.335938 L 45.378906 34.699219 C 45.378906 36.578125 43.839844 38.113281 41.957031 38.113281 L 8.589844 38.113281 C 6.707031 38.113281 5.167969 36.578125 5.167969 34.699219 L 5.167969 14.335938 C 5.167969 12.457031 6.707031 10.921875 8.589844 10.921875 Z M 8.589844 10.921875 " fill-opacity="1" fill-rule="evenodd"/></g><g clip-path="url(#c48bb951c8)"><path fill="#294a6b" d="M 26.820312 13.285156 L 29.019531 9.484375 C 29.347656 8.914062 29.347656 8.265625 29.019531 7.699219 C 28.695312 7.132812 28.128906 6.808594 27.472656 6.808594 L 23.074219 6.808594 C 22.417969 6.808594 21.855469 7.132812 21.527344 7.699219 C 21.195312 8.265625 21.195312 8.914062 21.527344 9.484375 L 23.726562 13.285156 C 24.054688 13.851562 24.617188 14.175781 25.273438 14.175781 C 25.929688 14.175781 26.496094 13.851562 26.820312 13.285156 Z M 26.820312 13.285156 " fill-opacity="1" fill-rule="evenodd"/></g><path fill="#fbbd80" d="M 16.347656 16.964844 C 18.554688 16.964844 20.347656 18.75 20.347656 20.953125 C 20.347656 23.160156 18.554688 24.945312 16.347656 24.945312 C 14.140625 24.945312 12.347656 23.160156 12.347656 20.953125 C 12.347656 18.75 14.140625 16.964844 16.347656 16.964844 Z M 16.347656 16.964844 " fill-opacity="1" fill-rule="evenodd"/><path fill="#0593fc" d="M 9.210938 32.066406 L 23.488281 32.066406 C 23.488281 28.152344 20.277344 24.945312 16.347656 24.945312 C 12.421875 24.945312 9.210938 28.152344 9.210938 32.066406 Z M 9.210938 32.066406 " fill-opacity="1" fill-rule="evenodd"/><g clip-path="url(#5ec48a133c)"><path fill="#000000" d="M 8.589844 38.695312 L 41.957031 38.695312 C 44.164062 38.695312 45.960938 36.902344 45.960938 34.699219 L 45.960938 14.335938 C 45.960938 12.128906 44.164062 10.335938 41.957031 10.335938 L 29.203125 10.335938 L 29.527344 9.777344 C 29.960938 9.023438 29.960938 8.160156 29.527344 7.410156 C 29.09375 6.65625 28.34375 6.222656 27.472656 6.222656 L 23.074219 6.222656 C 22.203125 6.222656 21.453125 6.65625 21.019531 7.40625 C 20.582031 8.160156 20.582031 9.023438 21.019531 9.777344 L 21.34375 10.335938 L 8.589844 10.335938 C 6.378906 10.335938 4.582031 12.128906 4.582031 14.335938 L 4.582031 34.699219 C 4.582031 36.902344 6.378906 38.695312 8.589844 38.695312 Z M 22.035156 7.992188 C 22.257812 7.605469 22.628906 7.390625 23.074219 7.390625 L 27.472656 7.390625 C 27.921875 7.390625 28.289062 7.605469 28.515625 7.992188 C 28.738281 8.378906 28.738281 8.804688 28.515625 9.191406 L 27.679688 10.632812 C 27.679688 10.636719 27.675781 10.640625 27.675781 10.644531 L 26.316406 12.992188 C 26.09375 13.378906 25.722656 13.589844 25.273438 13.589844 C 24.824219 13.589844 24.457031 13.378906 24.234375 12.992188 L 22.875 10.644531 C 22.871094 10.640625 22.871094 10.636719 22.867188 10.632812 L 22.035156 9.191406 C 21.808594 8.804688 21.808594 8.378906 22.035156 7.992188 Z M 5.753906 14.335938 C 5.753906 12.773438 7.027344 11.503906 8.589844 11.503906 L 22.019531 11.503906 L 23.21875 13.578125 C 23.652344 14.328125 24.402344 14.757812 25.273438 14.757812 C 26.144531 14.757812 26.894531 14.328125 27.328125 13.578125 L 28.527344 11.503906 L 41.957031 11.503906 C 43.519531 11.503906 44.792969 12.773438 44.792969 14.335938 L 44.792969 34.699219 C 44.792969 36.257812 43.519531 37.527344 41.957031 37.527344 L 8.589844 37.527344 C 7.027344 37.527344 5.753906 36.257812 5.753906 34.699219 Z M 9.210938 32.652344 L 23.488281 32.652344 C 23.8125 32.652344 24.074219 32.390625 24.074219 32.066406 C 24.074219 28.695312 21.890625 25.824219 18.859375 24.78125 C 20.109375 23.960938 20.933594 22.554688 20.933594 20.953125 C 20.933594 18.433594 18.875 16.378906 16.347656 16.378906 C 13.820312 16.378906 11.765625 18.433594 11.765625 20.953125 C 11.765625 22.550781 12.589844 23.960938 13.835938 24.78125 C 10.808594 25.820312 8.625 28.695312 8.625 32.066406 C 8.625 32.390625 8.886719 32.652344 9.210938 32.652344 Z M 12.933594 20.953125 C 12.933594 19.074219 14.464844 17.546875 16.347656 17.546875 C 18.230469 17.546875 19.765625 19.074219 19.765625 20.953125 C 19.765625 22.832031 18.230469 24.363281 16.347656 24.363281 C 14.464844 24.363281 12.933594 22.832031 12.933594 20.953125 Z M 16.347656 25.53125 C 19.765625 25.53125 22.578125 28.152344 22.878906 31.484375 L 9.820312 31.484375 C 10.117188 28.152344 12.933594 25.53125 16.347656 25.53125 Z M 41.921875 26.492188 C 41.921875 26.8125 41.660156 27.074219 41.339844 27.074219 L 39.324219 27.074219 C 39 27.074219 38.738281 26.8125 38.738281 26.492188 C 38.738281 26.167969 39 25.90625 39.324219 25.90625 L 41.339844 25.90625 C 41.660156 25.90625 41.921875 26.167969 41.921875 26.492188 Z M 41.921875 22.542969 C 41.921875 22.863281 41.660156 23.125 41.339844 23.125 L 35.128906 23.125 C 34.804688 23.125 34.542969 22.863281 34.542969 22.542969 C 34.542969 22.21875 34.804688 21.957031 35.128906 21.957031 L 41.339844 21.957031 C 41.660156 21.957031 41.921875 22.21875 41.921875 22.542969 Z M 27.058594 18.59375 C 27.058594 18.273438 27.320312 18.011719 27.644531 18.011719 L 41.339844 18.011719 C 41.660156 18.011719 41.921875 18.273438 41.921875 18.59375 C 41.921875 18.917969 41.660156 19.179688 41.339844 19.179688 L 27.644531 19.179688 C 27.320312 19.179688 27.058594 18.917969 27.058594 18.59375 Z M 27.058594 26.492188 C 27.058594 26.167969 27.320312 25.90625 27.644531 25.90625 L 36.34375 25.90625 C 36.664062 25.90625 36.925781 26.167969 36.925781 26.492188 C 36.925781 26.8125 36.664062 27.074219 36.34375 27.074219 L 27.644531 27.074219 C 27.320312 27.074219 27.058594 26.8125 27.058594 26.492188 Z M 27.058594 22.542969 C 27.058594 22.21875 27.320312 21.957031 27.644531 21.957031 L 31.960938 21.957031 C 32.285156 21.957031 32.546875 22.21875 32.546875 22.542969 C 32.546875 22.863281 32.285156 23.125 31.960938 23.125 L 27.644531 23.125 C 27.320312 23.125 27.058594 22.863281 27.058594 22.542969 Z M 27.058594 30.4375 C 27.058594 30.117188 27.320312 29.855469 27.644531 29.855469 L 41.339844 29.855469 C 41.660156 29.855469 41.921875 30.117188 41.921875 30.4375 C 41.921875 30.761719 41.660156 31.023438 41.339844 31.023438 L 27.644531 31.023438 C 27.320312 31.023438 27.058594 30.761719 27.058594 30.4375 Z M 27.058594 30.4375 " fill-opacity="1" fill-rule="nonzero"/></g></svg>