<svg xmlns="http://www.w3.org/2000/svg" xmlns:xlink="http://www.w3.org/1999/xlink" width="67" zoomAndPan="magnify" viewBox="0 0 50.25 46.5" height="62" preserveAspectRatio="xMidYMid meet" version="1.0"><defs><clipPath id="736b3a69b3"><path d="M 7 5.375 L 42 5.375 L 42 33 L 7 33 Z M 7 5.375 " clip-rule="nonzero"/></clipPath><clipPath id="f6af135a3d"><path d="M 16 33 L 23 33 L 23 41.582031 L 16 41.582031 Z M 16 33 " clip-rule="nonzero"/></clipPath><clipPath id="eef2f209ee"><path d="M 25 33 L 33 33 L 33 41.582031 L 25 41.582031 Z M 25 33 " clip-rule="nonzero"/></clipPath><clipPath id="9c4e8c5010"><path d="M 6.65625 5.375 L 42.128906 5.375 L 42.128906 33 L 6.65625 33 Z M 6.65625 5.375 " clip-rule="nonzero"/></clipPath><clipPath id="2d7fe56422"><path d="M 15 33 L 24 33 L 24 41.582031 L 15 41.582031 Z M 15 33 " clip-rule="nonzero"/></clipPath><clipPath id="c498673b47"><path d="M 25 33 L 33 33 L 33 41.582031 L 25 41.582031 Z M 25 33 " clip-rule="nonzero"/></clipPath></defs><g clip-path="url(#736b3a69b3)"><path fill="#2993fb" d="M 17.960938 32.105469 L 39.964844 32.105469 C 40.929688 32.105469 41.71875 31.308594 41.71875 30.332031 L 41.71875 7.589844 C 41.71875 6.617188 40.929688 5.820312 39.964844 5.820312 L 8.800781 5.820312 C 7.832031 5.820312 7.042969 6.617188 7.042969 7.589844 L 7.042969 30.332031 C 7.042969 31.308594 7.832031 32.105469 8.800781 32.105469 Z M 17.960938 32.105469 " fill-opacity="1" fill-rule="evenodd"/></g><path fill="#e7ecf9" d="M 10.332031 9.136719 L 38.429688 9.136719 L 38.429688 28.789062 L 10.332031 28.789062 Z M 10.332031 9.136719 " fill-opacity="1" fill-rule="evenodd"/><path fill="#f58acc" d="M 33.574219 16.695312 L 15.191406 16.695312 L 16.738281 18.546875 L 15.191406 20.398438 L 33.574219 20.398438 L 32.027344 18.546875 Z M 33.574219 16.695312 " fill-opacity="1" fill-rule="evenodd"/><g clip-path="url(#f6af135a3d)"><path fill="#f29c1f" d="M 22.789062 36.386719 L 19.175781 33.71875 L 16.199219 38.917969 L 19.285156 38.011719 L 20.050781 41.160156 Z M 22.789062 36.386719 " fill-opacity="1" fill-rule="evenodd"/></g><g clip-path="url(#eef2f209ee)"><path fill="#f29c1f" d="M 25.976562 36.386719 L 29.589844 33.71875 L 32.566406 38.917969 L 29.476562 38.011719 L 28.710938 41.160156 Z M 25.976562 36.386719 " fill-opacity="1" fill-rule="evenodd"/></g><path fill="#ffd731" d="M 24.382812 23.671875 C 23.675781 23.671875 23.101562 24.445312 22.46875 24.65625 C 21.835938 24.871094 20.941406 24.589844 20.410156 24.980469 C 19.882812 25.371094 19.886719 26.3125 19.5 26.84375 C 19.109375 27.378906 18.214844 27.664062 18.003906 28.304688 C 17.792969 28.945312 18.332031 29.734375 18.332031 30.445312 C 18.332031 31.15625 17.792969 31.949219 18.003906 32.589844 C 18.214844 33.226562 19.109375 33.515625 19.5 34.046875 C 19.886719 34.582031 19.882812 35.523438 20.410156 35.914062 C 20.941406 36.304688 21.835938 36.023438 22.46875 36.234375 C 23.101562 36.449219 23.675781 37.222656 24.382812 37.222656 C 25.085938 37.222656 25.660156 36.449219 26.292969 36.234375 C 26.929688 36.023438 27.824219 36.304688 28.351562 35.914062 C 28.878906 35.523438 28.878906 34.582031 29.265625 34.046875 C 29.652344 33.515625 30.550781 33.226562 30.761719 32.589844 C 30.972656 31.949219 30.433594 31.15625 30.433594 30.445312 C 30.433594 29.734375 30.972656 28.945312 30.761719 28.304688 C 30.550781 27.664062 29.652344 27.378906 29.265625 26.84375 C 28.878906 26.3125 28.878906 25.371094 28.351562 24.980469 C 27.824219 24.589844 26.929688 24.871094 26.292969 24.65625 C 25.660156 24.445312 25.085938 23.671875 24.382812 23.671875 Z M 24.382812 23.671875 " fill-opacity="1" fill-rule="evenodd"/><path fill="#f29c1f" d="M 28.25 30.445312 C 28.25 30.964844 28.152344 31.460938 27.957031 31.941406 C 27.761719 32.417969 27.480469 32.839844 27.117188 33.207031 C 26.753906 33.570312 26.335938 33.851562 25.863281 34.050781 C 25.386719 34.25 24.894531 34.347656 24.382812 34.347656 C 23.867188 34.347656 23.375 34.25 22.902344 34.050781 C 22.425781 33.851562 22.007812 33.570312 21.644531 33.207031 C 21.28125 32.839844 21.003906 32.417969 20.804688 31.941406 C 20.609375 31.460938 20.511719 30.964844 20.511719 30.445312 C 20.511719 29.929688 20.609375 29.433594 20.804688 28.953125 C 21.003906 28.476562 21.28125 28.054688 21.644531 27.6875 C 22.007812 27.324219 22.425781 27.039062 22.902344 26.84375 C 23.375 26.644531 23.867188 26.546875 24.382812 26.546875 C 24.894531 26.546875 25.386719 26.644531 25.863281 26.84375 C 26.335938 27.039062 26.753906 27.324219 27.117188 27.6875 C 27.480469 28.054688 27.761719 28.476562 27.957031 28.953125 C 28.152344 29.433594 28.25 29.929688 28.25 30.445312 Z M 28.25 30.445312 " fill-opacity="1" fill-rule="nonzero"/><g clip-path="url(#9c4e8c5010)"><path fill="#000000" d="M 39.964844 32.5 L 30.800781 32.5 C 30.585938 32.5 30.410156 32.324219 30.410156 32.105469 C 30.410156 31.886719 30.585938 31.710938 30.800781 31.710938 L 39.964844 31.710938 C 40.71875 31.710938 41.328125 31.09375 41.328125 30.332031 L 41.328125 7.589844 C 41.328125 6.832031 40.71875 6.210938 39.964844 6.210938 L 8.800781 6.210938 C 8.046875 6.210938 7.433594 6.832031 7.433594 7.589844 L 7.433594 30.332031 C 7.433594 31.09375 8.046875 31.710938 8.800781 31.710938 L 17.960938 31.710938 C 18.179688 31.710938 18.355469 31.886719 18.355469 32.105469 C 18.355469 32.324219 18.179688 32.5 17.960938 32.5 L 8.800781 32.5 C 7.613281 32.5 6.652344 31.527344 6.652344 30.332031 L 6.652344 7.589844 C 6.652344 6.394531 7.613281 5.421875 8.800781 5.421875 L 39.964844 5.421875 C 41.148438 5.421875 42.113281 6.394531 42.113281 7.589844 L 42.113281 30.332031 C 42.113281 31.527344 41.148438 32.5 39.964844 32.5 Z M 39.964844 32.5 " fill-opacity="1" fill-rule="evenodd"/></g><path fill="#000000" d="M 38.433594 29.183594 L 30.800781 29.183594 C 30.585938 29.183594 30.410156 29.007812 30.410156 28.789062 C 30.410156 28.570312 30.585938 28.394531 30.800781 28.394531 L 38.039062 28.394531 L 38.039062 9.527344 L 10.722656 9.527344 L 10.722656 28.394531 L 17.960938 28.394531 C 18.179688 28.394531 18.355469 28.570312 18.355469 28.789062 C 18.355469 29.007812 18.179688 29.183594 17.960938 29.183594 L 10.332031 29.183594 C 10.117188 29.183594 9.941406 29.007812 9.941406 28.789062 L 9.941406 9.132812 C 9.941406 8.917969 10.117188 8.738281 10.332031 8.738281 L 38.433594 8.738281 C 38.648438 8.738281 38.824219 8.917969 38.824219 9.132812 L 38.824219 28.789062 C 38.824219 29.007812 38.648438 29.183594 38.433594 29.183594 Z M 38.433594 29.183594 " fill-opacity="1" fill-rule="evenodd"/><path fill="#000000" d="M 16.03125 20.003906 L 32.734375 20.003906 L 31.726562 18.800781 C 31.605469 18.652344 31.605469 18.441406 31.726562 18.292969 L 32.734375 17.089844 L 16.03125 17.089844 L 17.035156 18.292969 C 17.160156 18.4375 17.160156 18.652344 17.035156 18.800781 Z M 33.574219 20.792969 L 15.1875 20.792969 C 15.035156 20.792969 14.898438 20.707031 14.835938 20.566406 C 14.769531 20.425781 14.792969 20.265625 14.890625 20.144531 L 16.226562 18.546875 L 14.890625 16.949219 C 14.792969 16.832031 14.769531 16.667969 14.835938 16.527344 C 14.898438 16.386719 15.035156 16.300781 15.1875 16.300781 L 33.574219 16.300781 C 33.726562 16.300781 33.863281 16.386719 33.929688 16.527344 C 33.992188 16.667969 33.972656 16.832031 33.875 16.949219 L 32.539062 18.546875 L 33.875 20.144531 C 33.972656 20.265625 33.992188 20.425781 33.929688 20.566406 C 33.863281 20.707031 33.726562 20.792969 33.574219 20.792969 Z M 33.574219 20.792969 " fill-opacity="1" fill-rule="evenodd"/><path fill="#000000" d="M 29.339844 12.160156 L 19.421875 12.160156 C 19.207031 12.160156 19.03125 11.984375 19.03125 11.769531 C 19.03125 11.550781 19.207031 11.375 19.421875 11.375 L 29.339844 11.375 C 29.558594 11.375 29.730469 11.550781 29.730469 11.769531 C 29.730469 11.984375 29.558594 12.160156 29.339844 12.160156 Z M 29.339844 12.160156 " fill-opacity="1" fill-rule="evenodd"/><path fill="#000000" d="M 29.339844 14.453125 L 19.421875 14.453125 C 19.207031 14.453125 19.03125 14.277344 19.03125 14.058594 C 19.03125 13.84375 19.207031 13.664062 19.421875 13.664062 L 29.339844 13.664062 C 29.558594 13.664062 29.730469 13.84375 29.730469 14.058594 C 29.730469 14.277344 29.558594 14.453125 29.339844 14.453125 Z M 29.339844 14.453125 " fill-opacity="1" fill-rule="evenodd"/><path fill="#000000" d="M 24.382812 24.066406 C 24.09375 24.066406 23.785156 24.289062 23.460938 24.523438 C 23.191406 24.722656 22.910156 24.925781 22.59375 25.03125 C 22.265625 25.140625 21.910156 25.144531 21.570312 25.144531 C 21.199219 25.148438 20.84375 25.148438 20.644531 25.296875 C 20.441406 25.445312 20.335938 25.78125 20.222656 26.136719 C 20.121094 26.464844 20.015625 26.800781 19.8125 27.078125 C 19.613281 27.351562 19.332031 27.554688 19.054688 27.75 C 18.746094 27.972656 18.457031 28.179688 18.375 28.429688 C 18.292969 28.679688 18.398438 29.03125 18.511719 29.40625 C 18.617188 29.738281 18.722656 30.085938 18.722656 30.445312 C 18.722656 30.808594 18.617188 31.152344 18.511719 31.488281 C 18.398438 31.863281 18.292969 32.214844 18.375 32.464844 C 18.457031 32.710938 18.746094 32.921875 19.054688 33.140625 C 19.332031 33.335938 19.613281 33.539062 19.8125 33.816406 C 20.015625 34.09375 20.121094 34.429688 20.222656 34.753906 C 20.335938 35.113281 20.441406 35.449219 20.644531 35.597656 C 20.84375 35.746094 21.199219 35.746094 21.570312 35.75 C 21.910156 35.75 22.265625 35.75 22.59375 35.863281 C 22.910156 35.96875 23.191406 36.171875 23.460938 36.371094 C 23.785156 36.605469 24.09375 36.828125 24.382812 36.828125 C 24.671875 36.828125 24.976562 36.605469 25.300781 36.371094 C 25.574219 36.171875 25.855469 35.96875 26.171875 35.863281 C 26.5 35.75 26.851562 35.75 27.191406 35.75 C 27.566406 35.746094 27.917969 35.746094 28.121094 35.597656 C 28.320312 35.449219 28.425781 35.113281 28.539062 34.753906 C 28.640625 34.429688 28.746094 34.09375 28.949219 33.816406 C 29.148438 33.539062 29.433594 33.335938 29.707031 33.140625 C 30.015625 32.921875 30.308594 32.710938 30.390625 32.464844 C 30.472656 32.214844 30.363281 31.863281 30.25 31.488281 C 30.148438 31.152344 30.042969 30.808594 30.042969 30.445312 C 30.042969 30.085938 30.148438 29.742188 30.25 29.40625 C 30.363281 29.03125 30.472656 28.679688 30.390625 28.429688 C 30.308594 28.179688 30.015625 27.972656 29.707031 27.753906 C 29.433594 27.554688 29.148438 27.351562 28.949219 27.078125 C 28.746094 26.800781 28.640625 26.464844 28.539062 26.136719 C 28.425781 25.78125 28.320312 25.445312 28.121094 25.296875 C 27.917969 25.148438 27.566406 25.148438 27.191406 25.144531 C 26.851562 25.144531 26.5 25.140625 26.171875 25.03125 C 25.855469 24.925781 25.574219 24.722656 25.300781 24.523438 C 24.976562 24.289062 24.671875 24.066406 24.382812 24.066406 Z M 24.382812 37.617188 C 23.839844 37.617188 23.394531 37.292969 23.003906 37.007812 C 22.769531 36.839844 22.550781 36.679688 22.34375 36.609375 C 22.136719 36.539062 21.859375 36.539062 21.566406 36.539062 C 21.109375 36.535156 20.585938 36.535156 20.179688 36.234375 C 19.773438 35.933594 19.617188 35.433594 19.476562 34.992188 C 19.390625 34.71875 19.308594 34.457031 19.183594 34.28125 C 19.058594 34.109375 18.835938 33.953125 18.601562 33.785156 C 18.222656 33.515625 17.792969 33.207031 17.632812 32.714844 C 17.46875 32.222656 17.621094 31.730469 17.765625 31.257812 C 17.855469 30.964844 17.9375 30.6875 17.9375 30.445312 C 17.9375 30.207031 17.855469 29.929688 17.765625 29.636719 C 17.621094 29.160156 17.46875 28.671875 17.632812 28.179688 C 17.792969 27.6875 18.222656 27.378906 18.601562 27.109375 C 18.835938 26.941406 19.058594 26.785156 19.183594 26.613281 C 19.308594 26.4375 19.390625 26.175781 19.476562 25.898438 C 19.617188 25.460938 19.773438 24.960938 20.179688 24.660156 C 20.585938 24.359375 21.109375 24.359375 21.566406 24.355469 C 21.859375 24.355469 22.136719 24.355469 22.34375 24.285156 C 22.550781 24.214844 22.769531 24.054688 23.003906 23.886719 C 23.394531 23.601562 23.839844 23.277344 24.382812 23.277344 C 24.925781 23.277344 25.367188 23.601562 25.761719 23.886719 C 25.992188 24.054688 26.214844 24.214844 26.417969 24.285156 C 26.628906 24.355469 26.902344 24.355469 27.195312 24.355469 C 27.65625 24.359375 28.175781 24.359375 28.582031 24.660156 C 28.992188 24.960938 29.148438 25.460938 29.285156 25.898438 C 29.371094 26.175781 29.453125 26.4375 29.582031 26.613281 C 29.707031 26.785156 29.925781 26.941406 30.160156 27.109375 C 30.539062 27.378906 30.96875 27.6875 31.132812 28.179688 C 31.292969 28.671875 31.144531 29.160156 30.996094 29.636719 C 30.910156 29.929688 30.824219 30.207031 30.824219 30.445312 C 30.824219 30.6875 30.910156 30.964844 30.996094 31.257812 C 31.144531 31.730469 31.292969 32.222656 31.132812 32.714844 C 30.96875 33.207031 30.539062 33.515625 30.160156 33.785156 C 29.925781 33.953125 29.707031 34.109375 29.582031 34.28125 C 29.453125 34.457031 29.371094 34.71875 29.285156 34.992188 C 29.148438 35.433594 28.992188 35.933594 28.582031 36.234375 C 28.175781 36.535156 27.65625 36.535156 27.195312 36.539062 C 26.902344 36.539062 26.628906 36.539062 26.417969 36.609375 C 26.214844 36.679688 25.992188 36.839844 25.761719 37.007812 C 25.367188 37.292969 24.925781 37.617188 24.382812 37.617188 Z M 24.382812 37.617188 " fill-opacity="1" fill-rule="evenodd"/><path fill="#000000" d="M 34.421875 23.867188 L 30.984375 23.867188 C 30.769531 23.867188 30.59375 23.691406 30.59375 23.472656 C 30.59375 23.253906 30.769531 23.078125 30.984375 23.078125 L 34.421875 23.078125 C 34.636719 23.078125 34.8125 23.253906 34.8125 23.472656 C 34.8125 23.691406 34.636719 23.867188 34.421875 23.867188 Z M 34.421875 23.867188 " fill-opacity="1" fill-rule="evenodd"/><path fill="#000000" d="M 35.339844 26.011719 L 31.90625 26.011719 C 31.6875 26.011719 31.515625 25.835938 31.515625 25.617188 C 31.515625 25.402344 31.6875 25.222656 31.90625 25.222656 L 35.339844 25.222656 C 35.554688 25.222656 35.730469 25.402344 35.730469 25.617188 C 35.730469 25.835938 35.554688 26.011719 35.339844 26.011719 Z M 35.339844 26.011719 " fill-opacity="1" fill-rule="evenodd"/><path fill="#000000" d="M 17.777344 23.867188 L 14.34375 23.867188 C 14.125 23.867188 13.953125 23.691406 13.953125 23.472656 C 13.953125 23.253906 14.125 23.078125 14.34375 23.078125 L 17.777344 23.078125 C 17.992188 23.078125 18.167969 23.253906 18.167969 23.472656 C 18.167969 23.691406 17.992188 23.867188 17.777344 23.867188 Z M 17.777344 23.867188 " fill-opacity="1" fill-rule="evenodd"/><path fill="#000000" d="M 16.859375 26.011719 L 13.421875 26.011719 C 13.207031 26.011719 13.03125 25.835938 13.03125 25.617188 C 13.03125 25.402344 13.207031 25.222656 13.421875 25.222656 L 16.859375 25.222656 C 17.074219 25.222656 17.25 25.402344 17.25 25.617188 C 17.25 25.835938 17.074219 26.011719 16.859375 26.011719 Z M 16.859375 26.011719 " fill-opacity="1" fill-rule="evenodd"/><path fill="#000000" d="M 24.382812 26.941406 C 22.464844 26.941406 20.902344 28.511719 20.902344 30.445312 C 20.902344 32.378906 22.464844 33.953125 24.382812 33.953125 C 26.300781 33.953125 27.859375 32.378906 27.859375 30.445312 C 27.859375 28.511719 26.300781 26.941406 24.382812 26.941406 Z M 24.382812 34.742188 C 22.03125 34.742188 20.121094 32.816406 20.121094 30.445312 C 20.121094 28.078125 22.03125 26.152344 24.382812 26.152344 C 26.730469 26.152344 28.644531 28.078125 28.644531 30.445312 C 28.644531 32.816406 26.730469 34.742188 24.382812 34.742188 Z M 24.382812 34.742188 " fill-opacity="1" fill-rule="evenodd"/><g clip-path="url(#2d7fe56422)"><path fill="#000000" d="M 20.050781 41.554688 C 20.035156 41.554688 20.015625 41.554688 19.996094 41.550781 C 19.839844 41.53125 19.710938 41.414062 19.671875 41.253906 L 19.003906 38.507812 L 16.308594 39.296875 C 16.152344 39.34375 15.988281 39.289062 15.890625 39.160156 C 15.792969 39.035156 15.777344 38.859375 15.859375 38.722656 L 18.835938 33.523438 C 18.945312 33.335938 19.183594 33.269531 19.371094 33.378906 C 19.558594 33.488281 19.621094 33.730469 19.511719 33.917969 L 17.023438 38.265625 L 19.175781 37.632812 C 19.277344 37.605469 19.390625 37.617188 19.480469 37.671875 C 19.574219 37.726562 19.640625 37.816406 19.667969 37.917969 L 20.199219 40.113281 L 22.449219 36.1875 C 22.558594 36 22.796875 35.933594 22.984375 36.042969 C 23.171875 36.152344 23.234375 36.394531 23.125 36.582031 L 20.390625 41.359375 C 20.320312 41.480469 20.191406 41.554688 20.050781 41.554688 Z M 20.050781 41.554688 " fill-opacity="1" fill-rule="evenodd"/></g><g clip-path="url(#c498673b47)"><path fill="#000000" d="M 28.710938 41.554688 C 28.574219 41.554688 28.441406 41.480469 28.371094 41.359375 L 25.636719 36.582031 C 25.527344 36.394531 25.59375 36.152344 25.78125 36.042969 C 25.96875 35.933594 26.207031 36 26.316406 36.1875 L 28.5625 40.113281 L 29.097656 37.917969 C 29.121094 37.816406 29.1875 37.726562 29.28125 37.671875 C 29.375 37.617188 29.484375 37.605469 29.585938 37.632812 L 31.738281 38.265625 L 29.25 33.917969 C 29.140625 33.730469 29.207031 33.488281 29.394531 33.378906 C 29.582031 33.269531 29.820312 33.335938 29.929688 33.523438 L 32.90625 38.722656 C 32.984375 38.859375 32.972656 39.035156 32.875 39.160156 C 32.773438 39.289062 32.609375 39.34375 32.457031 39.296875 L 29.761719 38.507812 L 29.089844 41.253906 C 29.054688 41.414062 28.925781 41.53125 28.765625 41.550781 C 28.746094 41.554688 28.730469 41.554688 28.710938 41.554688 Z M 28.710938 41.554688 " fill-opacity="1" fill-rule="evenodd"/></g></svg>