<svg xmlns="http://www.w3.org/2000/svg" xmlns:xlink="http://www.w3.org/1999/xlink" width="67" zoomAndPan="magnify" viewBox="0 0 50.25 46.5" height="62" preserveAspectRatio="xMidYMid meet" version="1.0"><defs><clipPath id="f83d4c701c"><path d="M 16 4.675781 L 33 4.675781 L 33 21 L 16 21 Z M 16 4.675781 " clip-rule="nonzero"/></clipPath><clipPath id="5b15ccc5e8"><path d="M 10.414062 23 L 19 23 L 19 34 L 10.414062 34 Z M 10.414062 23 " clip-rule="nonzero"/></clipPath><clipPath id="cdb287d57a"><path d="M 10.414062 4.675781 L 39.234375 4.675781 L 39.234375 41.625 L 10.414062 41.625 Z M 10.414062 4.675781 " clip-rule="nonzero"/></clipPath></defs><path fill="#ee2b39" d="M 25.285156 18.9375 L 29.164062 24.03125 L 29.710938 22.160156 L 32.316406 22.65625 L 28.433594 17.558594 Z M 25.285156 18.9375 " fill-opacity="1" fill-rule="evenodd"/><path fill="#ee2b39" d="M 23.953125 18.9375 L 20.074219 24.03125 L 19.523438 22.160156 L 16.921875 22.65625 L 20.800781 17.558594 Z M 23.953125 18.9375 " fill-opacity="1" fill-rule="evenodd"/><g clip-path="url(#f83d4c701c)"><path fill="#ee2b39" d="M 25.152344 5.054688 L 26.160156 6.285156 C 26.34375 6.507812 26.628906 6.59375 26.90625 6.503906 L 28.417969 6.011719 C 28.832031 5.878906 29.261719 6.15625 29.3125 6.59375 L 29.496094 8.175781 C 29.53125 8.460938 29.726562 8.6875 30.007812 8.761719 L 31.539062 9.171875 C 31.964844 9.28125 32.175781 9.75 31.984375 10.144531 L 31.285156 11.574219 C 31.15625 11.835938 31.199219 12.132812 31.398438 12.347656 L 32.46875 13.519531 C 32.761719 13.84375 32.691406 14.351562 32.316406 14.578125 L 30.957031 15.40625 C 30.710938 15.554688 30.585938 15.828125 30.636719 16.113281 L 30.902344 17.683594 C 30.976562 18.113281 30.640625 18.503906 30.203125 18.492188 L 28.617188 18.449219 C 28.328125 18.441406 28.074219 18.601562 27.964844 18.871094 L 27.34375 20.335938 C 27.171875 20.738281 26.679688 20.882812 26.320312 20.636719 L 25.007812 19.742188 C 24.765625 19.578125 24.46875 19.578125 24.230469 19.742188 L 22.917969 20.636719 C 22.554688 20.882812 22.066406 20.738281 21.894531 20.335938 L 21.273438 18.871094 C 21.160156 18.601562 20.910156 18.441406 20.621094 18.449219 L 19.03125 18.492188 C 18.59375 18.503906 18.261719 18.113281 18.332031 17.683594 L 18.601562 16.113281 C 18.648438 15.828125 18.527344 15.554688 18.28125 15.40625 L 16.921875 14.578125 C 16.546875 14.351562 16.472656 13.84375 16.769531 13.519531 L 17.839844 12.347656 C 18.035156 12.132812 18.078125 11.835938 17.953125 11.574219 L 17.253906 10.144531 C 17.058594 9.75 17.273438 9.28125 17.695312 9.171875 L 19.230469 8.761719 C 19.511719 8.6875 19.707031 8.460938 19.742188 8.175781 L 19.925781 6.59375 C 19.976562 6.15625 20.40625 5.878906 20.820312 6.011719 L 22.332031 6.503906 C 22.605469 6.59375 22.894531 6.507812 23.078125 6.285156 L 24.085938 5.054688 C 24.363281 4.714844 24.875 4.714844 25.152344 5.054688 Z M 25.152344 5.054688 " fill-opacity="1" fill-rule="evenodd"/></g><path fill="#ffffff" d="M 24.617188 17.523438 C 27.222656 17.523438 29.347656 15.394531 29.347656 12.777344 C 29.347656 10.167969 27.222656 8.035156 24.617188 8.035156 C 22.011719 8.035156 19.886719 10.167969 19.886719 12.777344 C 19.886719 15.394531 22.011719 17.523438 24.617188 17.523438 Z M 24.617188 17.523438 " fill-opacity="1" fill-rule="evenodd"/><path fill="#f6bc4e" d="M 24.617188 9.484375 L 25.550781 11.425781 L 27.679688 11.714844 L 26.128906 13.207031 L 26.511719 15.328125 L 24.617188 14.308594 L 22.726562 15.328125 L 23.109375 13.207031 L 21.554688 11.714844 L 23.683594 11.425781 Z M 24.617188 9.484375 " fill-opacity="1" fill-rule="evenodd"/><path fill="#f2d3bd" d="M 24.019531 39.515625 L 14.027344 32.96875 L 17.933594 26.179688 L 20.480469 27.648438 C 22.613281 27.515625 22.910156 26.550781 24.792969 27.332031 L 27.148438 29.671875 L 33.578125 33.394531 C 34.179688 33.742188 34.386719 34.515625 34.039062 35.117188 C 33.695312 35.71875 32.921875 35.925781 32.320312 35.578125 L 31.410156 35.054688 C 31.988281 35.40625 32.179688 36.167969 31.84375 36.761719 C 31.496094 37.359375 30.722656 37.566406 30.125 37.222656 L 29.25 36.714844 C 29.847656 37.0625 30.054688 37.839844 29.710938 38.4375 C 29.367188 39.042969 28.589844 39.25 27.992188 38.902344 L 27.039062 38.347656 C 27.636719 38.695312 27.839844 39.46875 27.496094 40.070312 C 27.148438 40.671875 26.375 40.878906 25.777344 40.53125 Z M 24.019531 39.515625 " fill-opacity="1" fill-rule="evenodd"/><path fill="#d79b62" d="M 31.335938 26.117188 L 35.363281 33.117188 C 35.621094 33.566406 36.199219 33.71875 36.644531 33.460938 L 38.511719 32.378906 L 33.546875 23.75 L 31.679688 24.832031 C 31.230469 25.089844 31.074219 25.671875 31.335938 26.117188 Z M 31.335938 26.117188 " fill-opacity="1" fill-rule="evenodd"/><g clip-path="url(#5b15ccc5e8)"><path fill="#d79b62" d="M 17.902344 26.238281 L 13.875 33.234375 C 13.617188 33.683594 13.039062 33.839844 12.589844 33.578125 L 10.722656 32.5 L 15.691406 23.871094 L 17.558594 24.949219 C 18.003906 25.210938 18.160156 25.789062 17.902344 26.238281 Z M 17.902344 26.238281 " fill-opacity="1" fill-rule="evenodd"/></g><path fill="#e8c4ab" d="M 31.546875 26.488281 L 29.6875 27.25 C 28.433594 26.53125 28.570312 26.296875 27.183594 26.582031 C 26.269531 26.773438 25.855469 26.800781 25.457031 26.96875 C 24.394531 27.417969 24.152344 28.050781 24.019531 28.882812 C 23.855469 29.886719 23.929688 30.871094 23.542969 31.898438 C 25.828125 32.101562 25.898438 31.523438 26.648438 29.382812 L 33.773438 33.507812 L 34.984375 32.460938 Z M 31.546875 26.488281 " fill-opacity="1" fill-rule="evenodd"/><path fill="#e8c4ab" d="M 19.285156 34.824219 L 18.414062 35.941406 C 18.0625 36.394531 17.40625 36.476562 16.957031 36.121094 C 16.507812 35.769531 16.425781 35.109375 16.777344 34.660156 L 17.648438 33.542969 C 18 33.089844 18.65625 33.007812 19.105469 33.359375 C 19.558594 33.714844 19.636719 34.371094 19.285156 34.824219 Z M 19.285156 34.824219 " fill-opacity="1" fill-rule="evenodd"/><path fill="#e8c4ab" d="M 21.898438 34.855469 L 20.050781 37.222656 C 19.699219 37.675781 19.046875 37.757812 18.59375 37.40625 C 18.144531 37.050781 18.0625 36.394531 18.414062 35.941406 L 20.261719 33.570312 C 20.613281 33.121094 21.269531 33.039062 21.71875 33.390625 C 22.167969 33.746094 22.25 34.402344 21.898438 34.855469 Z M 21.898438 34.855469 " fill-opacity="1" fill-rule="evenodd"/><path fill="#e8c4ab" d="M 23.820312 35.773438 L 21.691406 38.507812 C 21.339844 38.960938 20.679688 39.042969 20.230469 38.6875 C 19.78125 38.335938 19.699219 37.675781 20.050781 37.222656 L 22.179688 34.492188 C 22.53125 34.039062 23.1875 33.960938 23.640625 34.3125 C 24.089844 34.664062 24.167969 35.324219 23.820312 35.773438 Z M 23.820312 35.773438 " fill-opacity="1" fill-rule="evenodd"/><path fill="#e8c4ab" d="M 24.390625 38.425781 L 23.328125 39.792969 C 22.976562 40.242188 22.320312 40.324219 21.871094 39.96875 C 21.417969 39.617188 21.339844 38.960938 21.691406 38.507812 L 22.753906 37.144531 C 23.105469 36.691406 23.757812 36.613281 24.210938 36.964844 C 24.660156 37.316406 24.742188 37.976562 24.390625 38.425781 Z M 24.390625 38.425781 " fill-opacity="1" fill-rule="evenodd"/><g clip-path="url(#cdb287d57a)"><path fill="#000000" d="M 16.613281 13.582031 C 16.378906 13.835938 16.273438 14.175781 16.324219 14.515625 C 16.371094 14.855469 16.566406 15.152344 16.863281 15.332031 L 18.226562 16.160156 C 18.316406 16.214844 18.359375 16.308594 18.339844 16.414062 L 18.070312 17.988281 C 18.015625 18.328125 18.109375 18.671875 18.335938 18.933594 C 18.558594 19.191406 18.886719 19.335938 19.226562 19.324219 L 19.375 19.320312 L 16.738281 22.78125 C 16.625 22.929688 16.613281 23.132812 16.710938 23.292969 C 16.808594 23.449219 16.996094 23.53125 17.179688 23.496094 L 19.394531 23.078125 L 19.828125 24.566406 C 19.875 24.730469 20.011719 24.851562 20.175781 24.882812 C 20.203125 24.886719 20.230469 24.890625 20.257812 24.890625 C 20.398438 24.890625 20.53125 24.828125 20.617188 24.714844 L 23.011719 21.566406 C 23.136719 21.535156 23.257812 21.480469 23.367188 21.40625 L 24.6875 20.503906 C 24.777344 20.445312 24.875 20.445312 24.960938 20.503906 L 26.28125 21.40625 C 26.390625 21.480469 26.511719 21.535156 26.636719 21.566406 L 29.035156 24.714844 C 29.121094 24.828125 29.253906 24.890625 29.390625 24.890625 C 29.417969 24.890625 29.445312 24.886719 29.472656 24.882812 C 29.640625 24.851562 29.773438 24.730469 29.820312 24.566406 L 30.253906 23.078125 L 32.472656 23.496094 C 32.65625 23.53125 32.839844 23.449219 32.9375 23.292969 C 33.035156 23.132812 33.023438 22.929688 32.910156 22.78125 L 30.277344 19.320312 L 30.421875 19.324219 C 30.765625 19.335938 31.089844 19.191406 31.316406 18.933594 C 31.539062 18.675781 31.636719 18.328125 31.578125 17.988281 L 31.308594 16.414062 C 31.289062 16.308594 31.332031 16.214844 31.421875 16.160156 L 32.789062 15.332031 C 33.082031 15.15625 33.277344 14.859375 33.328125 14.519531 C 33.375 14.179688 33.273438 13.839844 33.039062 13.582031 L 31.960938 12.402344 C 31.890625 12.320312 31.875 12.226562 31.921875 12.128906 L 32.625 10.691406 C 32.777344 10.378906 32.78125 10.023438 32.636719 9.710938 C 32.496094 9.398438 32.222656 9.171875 31.890625 9.082031 L 30.347656 8.671875 C 30.246094 8.648438 30.183594 8.570312 30.167969 8.464844 L 29.984375 6.875 C 29.945312 6.53125 29.757812 6.230469 29.46875 6.042969 C 29.179688 5.859375 28.828125 5.8125 28.5 5.917969 L 26.980469 6.410156 C 26.878906 6.445312 26.789062 6.414062 26.71875 6.332031 L 25.707031 5.09375 C 25.488281 4.828125 25.167969 4.675781 24.824219 4.675781 C 24.484375 4.675781 24.160156 4.828125 23.941406 5.09375 L 22.929688 6.332031 C 22.863281 6.414062 22.769531 6.445312 22.667969 6.410156 L 21.152344 5.917969 C 20.824219 5.8125 20.46875 5.859375 20.183594 6.042969 C 19.894531 6.230469 19.703125 6.53125 19.664062 6.875 L 19.480469 8.464844 C 19.46875 8.570312 19.402344 8.648438 19.300781 8.671875 L 17.757812 9.082031 C 17.425781 9.171875 17.152344 9.398438 17.011719 9.710938 C 16.871094 10.023438 16.875 10.382812 17.027344 10.691406 L 17.726562 12.128906 C 17.773438 12.226562 17.761719 12.320312 17.6875 12.402344 Z M 20.441406 23.460938 L 20.140625 22.433594 C 20.078125 22.210938 19.855469 22.074219 19.628906 22.117188 L 18.164062 22.394531 L 20.527344 19.292969 L 20.820312 19.285156 C 20.925781 19.28125 21.011719 19.335938 21.054688 19.433594 L 21.675781 20.90625 C 21.753906 21.09375 21.878906 21.25 22.035156 21.367188 Z M 31.488281 22.394531 L 30.023438 22.117188 C 29.792969 22.074219 29.570312 22.210938 29.507812 22.433594 L 29.207031 23.460938 L 27.617188 21.367188 C 27.769531 21.25 27.894531 21.09375 27.972656 20.90625 L 28.597656 19.429688 C 28.640625 19.335938 28.726562 19.28125 28.828125 19.285156 L 29.121094 19.292969 Z M 18.351562 13.007812 C 18.667969 12.660156 18.742188 12.160156 18.535156 11.734375 L 17.832031 10.296875 C 17.789062 10.203125 17.8125 10.125 17.828125 10.085938 C 17.847656 10.046875 17.890625 9.980469 17.988281 9.953125 L 19.53125 9.542969 C 19.988281 9.421875 20.316406 9.039062 20.371094 8.570312 L 20.554688 6.980469 C 20.570312 6.878906 20.628906 6.824219 20.667969 6.800781 C 20.703125 6.777344 20.777344 6.746094 20.875 6.777344 L 22.390625 7.269531 C 22.839844 7.414062 23.324219 7.269531 23.625 6.902344 L 24.636719 5.667969 C 24.699219 5.589844 24.78125 5.578125 24.824219 5.578125 C 24.867188 5.578125 24.949219 5.589844 25.011719 5.667969 L 26.023438 6.902344 C 26.324219 7.269531 26.808594 7.414062 27.257812 7.269531 L 28.777344 6.777344 C 28.875 6.746094 28.945312 6.777344 28.984375 6.800781 C 29.019531 6.824219 29.082031 6.878906 29.09375 6.980469 L 29.277344 8.570312 C 29.332031 9.039062 29.664062 9.421875 30.117188 9.542969 L 31.660156 9.953125 C 31.757812 9.980469 31.804688 10.046875 31.820312 10.085938 C 31.839844 10.125 31.863281 10.207031 31.820312 10.296875 L 31.117188 11.734375 C 30.910156 12.160156 30.980469 12.660156 31.296875 13.007812 L 32.375 14.1875 C 32.445312 14.265625 32.445312 14.347656 32.4375 14.390625 C 32.433594 14.433594 32.410156 14.511719 32.324219 14.5625 L 30.957031 15.390625 C 30.554688 15.636719 30.34375 16.097656 30.421875 16.566406 L 30.691406 18.140625 C 30.710938 18.242188 30.664062 18.3125 30.636719 18.34375 C 30.609375 18.375 30.546875 18.429688 30.445312 18.425781 L 28.851562 18.382812 C 28.84375 18.382812 28.832031 18.382812 28.824219 18.382812 C 28.363281 18.382812 27.949219 18.65625 27.773438 19.082031 L 27.148438 20.554688 C 27.109375 20.648438 27.035156 20.679688 26.992188 20.695312 C 26.976562 20.699219 26.949219 20.703125 26.917969 20.703125 C 26.910156 20.703125 26.90625 20.703125 26.898438 20.703125 C 26.863281 20.699219 26.824219 20.6875 26.785156 20.660156 L 25.46875 19.761719 C 25.273438 19.625 25.050781 19.558594 24.824219 19.558594 C 24.601562 19.558594 24.378906 19.625 24.183594 19.757812 L 22.863281 20.660156 C 22.824219 20.6875 22.785156 20.699219 22.753906 20.703125 C 22.746094 20.703125 22.738281 20.703125 22.730469 20.703125 C 22.699219 20.703125 22.675781 20.699219 22.65625 20.695312 C 22.617188 20.679688 22.542969 20.648438 22.503906 20.554688 L 21.878906 19.078125 C 21.699219 18.652344 21.285156 18.382812 20.824219 18.382812 C 20.816406 18.382812 20.808594 18.382812 20.800781 18.382812 L 19.203125 18.425781 C 19.101562 18.429688 19.039062 18.375 19.011719 18.34375 C 18.984375 18.3125 18.941406 18.242188 18.957031 18.140625 L 19.226562 16.566406 C 19.304688 16.097656 19.097656 15.636719 18.691406 15.390625 L 17.328125 14.5625 C 17.242188 14.511719 17.21875 14.433594 17.210938 14.390625 C 17.207031 14.347656 17.207031 14.265625 17.273438 14.191406 Z M 24.824219 18.355469 C 27.691406 18.355469 30.023438 16.015625 30.023438 13.140625 C 30.023438 10.265625 27.691406 7.925781 24.824219 7.925781 C 21.957031 7.925781 19.625 10.265625 19.625 13.140625 C 19.625 16.015625 21.957031 18.355469 24.824219 18.355469 Z M 24.824219 8.828125 C 27.195312 8.828125 29.125 10.761719 29.125 13.140625 C 29.125 15.519531 27.195312 17.453125 24.824219 17.453125 C 22.453125 17.453125 20.523438 15.519531 20.523438 13.140625 C 20.523438 10.761719 22.453125 8.828125 24.824219 8.828125 Z M 22.484375 15.617188 C 22.453125 15.789062 22.523438 15.960938 22.660156 16.0625 C 22.800781 16.164062 22.984375 16.175781 23.136719 16.09375 L 24.824219 15.1875 L 26.511719 16.09375 C 26.578125 16.128906 26.652344 16.148438 26.726562 16.148438 C 26.816406 16.148438 26.910156 16.117188 26.988281 16.0625 C 27.128906 15.960938 27.195312 15.789062 27.167969 15.617188 L 26.828125 13.726562 L 28.210938 12.398438 C 28.335938 12.277344 28.378906 12.097656 28.328125 11.933594 C 28.273438 11.769531 28.132812 11.648438 27.960938 11.625 L 26.0625 11.367188 L 25.230469 9.636719 C 25.152344 9.480469 24.996094 9.382812 24.824219 9.382812 C 24.652344 9.382812 24.496094 9.480469 24.421875 9.636719 L 23.585938 11.367188 L 21.691406 11.625 C 21.519531 11.648438 21.378906 11.769531 21.324219 11.933594 C 21.269531 12.097656 21.316406 12.277344 21.441406 12.398438 L 22.824219 13.726562 Z M 22.734375 12.390625 L 23.949219 12.226562 C 24.097656 12.207031 24.226562 12.113281 24.292969 11.976562 L 24.824219 10.867188 L 25.359375 11.976562 C 25.425781 12.113281 25.554688 12.207031 25.703125 12.226562 L 26.917969 12.390625 L 26.03125 13.242188 C 25.921875 13.347656 25.875 13.5 25.902344 13.648438 L 26.117188 14.859375 L 25.039062 14.277344 C 24.90625 14.207031 24.746094 14.207031 24.613281 14.277344 L 23.53125 14.859375 L 23.75 13.648438 C 23.777344 13.5 23.726562 13.347656 23.617188 13.242188 Z M 15.746094 23.84375 C 15.628906 23.871094 15.53125 23.949219 15.472656 24.050781 L 10.484375 32.714844 C 10.425781 32.816406 10.410156 32.941406 10.441406 33.054688 C 10.46875 33.171875 10.546875 33.269531 10.648438 33.328125 L 12.523438 34.414062 C 12.738281 34.539062 12.976562 34.601562 13.21875 34.601562 C 13.339844 34.601562 13.460938 34.585938 13.578125 34.554688 C 13.886719 34.472656 14.148438 34.292969 14.332031 34.042969 L 16.335938 35.355469 C 16.285156 35.542969 16.269531 35.738281 16.292969 35.9375 C 16.34375 36.332031 16.542969 36.6875 16.855469 36.933594 C 17.121094 37.140625 17.4375 37.25 17.769531 37.25 C 17.828125 37.25 17.882812 37.246094 17.941406 37.238281 C 17.988281 37.613281 18.179688 37.972656 18.5 38.222656 C 18.773438 38.433594 19.09375 38.539062 19.417969 38.539062 C 19.472656 38.539062 19.527344 38.535156 19.585938 38.527344 C 19.636719 38.902344 19.824219 39.261719 20.144531 39.511719 C 20.417969 39.722656 20.738281 39.824219 21.058594 39.824219 C 21.117188 39.824219 21.171875 39.820312 21.230469 39.816406 C 21.28125 40.207031 21.480469 40.558594 21.789062 40.796875 C 22.054688 41.003906 22.371094 41.113281 22.703125 41.113281 C 22.765625 41.113281 22.828125 41.109375 22.890625 41.101562 C 23.285156 41.054688 23.636719 40.851562 23.882812 40.539062 L 24.007812 40.378906 L 25.765625 41.398438 C 26.03125 41.550781 26.324219 41.625 26.613281 41.625 C 27.207031 41.625 27.785156 41.316406 28.101562 40.765625 C 28.257812 40.496094 28.332031 40.203125 28.332031 39.910156 C 29.082031 40.144531 29.921875 39.839844 30.328125 39.132812 C 30.488281 38.851562 30.5625 38.546875 30.554688 38.246094 C 30.839844 38.320312 31.136719 38.320312 31.429688 38.242188 C 31.871094 38.121094 32.242188 37.839844 32.464844 37.445312 C 32.621094 37.171875 32.695312 36.875 32.695312 36.582031 C 32.996094 36.671875 33.316406 36.679688 33.632812 36.59375 C 34.074219 36.476562 34.445312 36.191406 34.671875 35.796875 C 35.003906 35.222656 34.964844 34.539062 34.632812 34.015625 L 35.117188 33.597656 L 35.222656 33.789062 C 35.484375 34.234375 35.953125 34.480469 36.433594 34.480469 C 36.667969 34.480469 36.90625 34.421875 37.125 34.296875 L 39 33.210938 C 39.105469 33.148438 39.179688 33.050781 39.210938 32.9375 C 39.242188 32.820312 39.226562 32.699219 39.164062 32.59375 L 34.175781 23.933594 C 34.117188 23.828125 34.019531 23.753906 33.90625 23.722656 C 33.789062 23.691406 33.667969 23.707031 33.5625 23.769531 L 31.691406 24.851562 C 31.367188 25.039062 31.136719 25.339844 31.042969 25.699219 C 30.953125 26.03125 30.988281 26.378906 31.140625 26.683594 L 29.949219 27.167969 C 29.78125 27.066406 29.640625 26.976562 29.511719 26.894531 C 28.789062 26.429688 28.527344 26.308594 27.3125 26.558594 C 27.019531 26.617188 26.78125 26.660156 26.570312 26.699219 C 26.109375 26.785156 25.808594 26.839844 25.492188 26.972656 C 25.289062 27.058594 25.109375 27.152344 24.953125 27.25 C 23.78125 26.816406 23.132812 27.023438 22.386719 27.261719 C 21.957031 27.398438 21.472656 27.554688 20.777344 27.613281 L 18.640625 26.382812 C 18.667969 26.199219 18.65625 26.007812 18.609375 25.820312 C 18.511719 25.457031 18.28125 25.15625 17.960938 24.972656 L 16.085938 23.886719 C 15.984375 23.828125 15.859375 23.8125 15.746094 23.84375 Z M 17.410156 36.226562 C 17.285156 36.125 17.207031 35.984375 17.183594 35.824219 C 17.164062 35.667969 17.207031 35.511719 17.304688 35.386719 L 18.179688 34.261719 C 18.277344 34.140625 18.417969 34.058594 18.574219 34.039062 C 18.601562 34.039062 18.625 34.035156 18.648438 34.035156 C 18.78125 34.035156 18.910156 34.078125 19.015625 34.164062 C 19.269531 34.363281 19.316406 34.730469 19.121094 34.992188 L 18.242188 36.121094 C 18.144531 36.246094 18.003906 36.324219 17.847656 36.34375 C 17.6875 36.363281 17.53125 36.320312 17.410156 36.226562 Z M 19.050781 37.511719 C 18.792969 37.308594 18.746094 36.933594 18.949219 36.675781 L 19.824219 35.550781 C 19.828125 35.550781 19.828125 35.546875 19.832031 35.542969 L 20.804688 34.296875 C 20.902344 34.171875 21.042969 34.089844 21.203125 34.070312 C 21.226562 34.066406 21.25 34.066406 21.277344 34.066406 C 21.40625 34.066406 21.535156 34.109375 21.640625 34.191406 C 21.761719 34.289062 21.839844 34.429688 21.859375 34.589844 C 21.878906 34.742188 21.839844 34.890625 21.75 35.015625 L 19.886719 37.410156 C 19.789062 37.535156 19.648438 37.613281 19.492188 37.632812 C 19.332031 37.652344 19.175781 37.609375 19.050781 37.511719 Z M 20.695312 38.800781 C 20.4375 38.597656 20.390625 38.222656 20.59375 37.964844 L 22.449219 35.582031 C 22.453125 35.578125 22.457031 35.574219 22.460938 35.566406 L 22.730469 35.21875 C 22.847656 35.070312 23.023438 34.988281 23.199219 34.988281 C 23.328125 34.988281 23.457031 35.03125 23.566406 35.117188 C 23.824219 35.320312 23.871094 35.695312 23.667969 35.953125 L 22.601562 37.320312 C 22.601562 37.324219 22.597656 37.324219 22.597656 37.328125 L 21.53125 38.695312 C 21.328125 38.957031 20.953125 39 20.695312 38.800781 Z M 22.339844 40.085938 C 22.214844 39.992188 22.136719 39.851562 22.117188 39.691406 C 22.097656 39.53125 22.140625 39.375 22.238281 39.25 L 22.265625 39.214844 L 23.308594 37.878906 C 23.425781 37.730469 23.601562 37.652344 23.773438 37.652344 C 23.902344 37.652344 24.03125 37.695312 24.140625 37.78125 C 24.261719 37.875 24.34375 38.015625 24.363281 38.175781 C 24.382812 38.335938 24.339844 38.492188 24.242188 38.617188 L 23.5625 39.484375 C 23.558594 39.492188 23.550781 39.5 23.546875 39.507812 L 23.175781 39.984375 C 22.972656 40.242188 22.601562 40.289062 22.339844 40.085938 Z M 31.910156 25.933594 C 31.945312 25.804688 32.023438 25.699219 32.140625 25.632812 L 33.625 24.773438 L 38.164062 32.65625 L 36.675781 33.515625 C 36.441406 33.652344 36.136719 33.570312 36 33.335938 L 35.632812 32.695312 C 35.625 32.683594 35.621094 32.675781 35.617188 32.667969 L 32.183594 26.703125 C 32.175781 26.683594 32.164062 26.667969 32.15625 26.65625 L 31.957031 26.308594 C 31.890625 26.195312 31.875 26.0625 31.910156 25.933594 Z M 25.84375 27.800781 C 26.066406 27.707031 26.316406 27.660156 26.730469 27.585938 C 26.945312 27.546875 27.1875 27.503906 27.492188 27.441406 C 28.40625 27.253906 28.453125 27.285156 29.027344 27.652344 C 29.199219 27.765625 29.414062 27.902344 29.691406 28.0625 C 29.8125 28.128906 29.957031 28.140625 30.085938 28.085938 L 31.589844 27.472656 L 34.660156 32.804688 L 33.964844 33.402344 L 27.089844 29.421875 C 26.972656 29.355469 26.835938 29.34375 26.707031 29.390625 C 26.582031 29.4375 26.484375 29.535156 26.441406 29.660156 C 26.402344 29.777344 26.363281 29.886719 26.328125 29.988281 C 26.027344 30.847656 25.832031 31.414062 25.527344 31.671875 C 25.304688 31.863281 24.953125 31.941406 24.34375 31.921875 C 24.476562 31.386719 24.519531 30.867188 24.558594 30.363281 C 24.585938 30.023438 24.613281 29.703125 24.664062 29.382812 C 24.792969 28.59375 25.003906 28.15625 25.84375 27.800781 Z M 20.671875 28.523438 C 20.679688 28.523438 20.691406 28.523438 20.699219 28.523438 C 21.578125 28.464844 22.179688 28.273438 22.660156 28.121094 C 23.214844 27.941406 23.605469 27.820312 24.214844 27.964844 C 23.980469 28.328125 23.859375 28.75 23.777344 29.238281 C 23.722656 29.597656 23.691406 29.949219 23.664062 30.285156 C 23.609375 30.9375 23.558594 31.550781 23.324219 32.175781 C 23.273438 32.308594 23.289062 32.457031 23.363281 32.574219 C 23.4375 32.695312 23.566406 32.773438 23.703125 32.785156 C 26.144531 33.003906 26.484375 32.265625 27.109375 30.472656 L 33.59375 34.226562 C 33.59375 34.226562 33.597656 34.226562 33.597656 34.230469 C 33.988281 34.457031 34.121094 34.957031 33.898438 35.34375 C 33.789062 35.535156 33.613281 35.667969 33.398438 35.726562 C 33.191406 35.78125 32.972656 35.753906 32.785156 35.644531 L 31.871094 35.117188 L 28.359375 33.082031 C 28.144531 32.957031 27.871094 33.03125 27.746094 33.246094 C 27.621094 33.460938 27.695312 33.738281 27.910156 33.859375 L 31.414062 35.890625 C 31.785156 36.121094 31.90625 36.613281 31.6875 36.992188 C 31.582031 37.179688 31.40625 37.316406 31.195312 37.371094 C 30.984375 37.429688 30.765625 37.402344 30.578125 37.292969 L 29.703125 36.785156 L 27.621094 35.582031 C 27.40625 35.457031 27.132812 35.53125 27.007812 35.746094 C 26.882812 35.964844 26.957031 36.238281 27.171875 36.363281 L 29.253906 37.566406 C 29.640625 37.789062 29.773438 38.292969 29.550781 38.679688 C 29.324219 39.070312 28.828125 39.203125 28.4375 38.980469 L 27.480469 38.425781 C 27.480469 38.425781 27.480469 38.425781 27.476562 38.425781 L 26.316406 37.75 C 26.101562 37.628906 25.828125 37.699219 25.703125 37.917969 C 25.578125 38.132812 25.652344 38.40625 25.867188 38.53125 L 27.027344 39.203125 L 27.03125 39.207031 C 27.417969 39.429688 27.546875 39.929688 27.324219 40.316406 C 27.101562 40.707031 26.601562 40.839844 26.210938 40.617188 L 24.566406 39.664062 L 24.949219 39.171875 C 25.195312 38.855469 25.300781 38.464844 25.253906 38.066406 C 25.203125 37.667969 25.003906 37.3125 24.691406 37.070312 C 24.523438 36.9375 24.339844 36.851562 24.148438 36.800781 L 24.375 36.507812 C 24.882812 35.855469 24.765625 34.914062 24.117188 34.40625 C 23.804688 34.160156 23.414062 34.054688 23.019531 34.101562 C 22.902344 34.117188 22.792969 34.144531 22.6875 34.183594 C 22.59375 33.90625 22.425781 33.664062 22.191406 33.484375 C 21.878906 33.238281 21.488281 33.128906 21.09375 33.175781 C 20.695312 33.226562 20.339844 33.425781 20.097656 33.742188 L 19.960938 33.917969 C 19.863281 33.742188 19.734375 33.582031 19.570312 33.453125 C 19.253906 33.207031 18.863281 33.097656 18.464844 33.148438 C 18.070312 33.195312 17.71875 33.394531 17.472656 33.710938 L 16.792969 34.582031 L 14.792969 33.269531 L 18.277344 27.210938 L 20.449219 28.460938 C 20.515625 28.503906 20.59375 28.523438 20.671875 28.523438 Z M 17.742188 26.054688 C 17.773438 26.183594 17.757812 26.316406 17.691406 26.429688 L 13.648438 33.453125 C 13.582031 33.566406 13.476562 33.648438 13.347656 33.683594 C 13.21875 33.71875 13.085938 33.699219 12.972656 33.632812 L 11.488281 32.773438 L 16.027344 24.890625 L 17.511719 25.753906 C 17.625 25.816406 17.707031 25.925781 17.742188 26.054688 Z M 17.742188 26.054688 " fill-opacity="1" fill-rule="nonzero"/></g></svg>