<svg xmlns="http://www.w3.org/2000/svg" xmlns:xlink="http://www.w3.org/1999/xlink" width="67" zoomAndPan="magnify" viewBox="0 0 50.25 46.5" height="62" preserveAspectRatio="xMidYMid meet" version="1.0"><defs><clipPath id="a478b3f92d"><path d="M 15 8 L 44.949219 8 L 44.949219 41.667969 L 15 41.667969 Z M 15 8 " clip-rule="nonzero"/></clipPath><clipPath id="b60d7e6925"><path d="M 5.785156 6.199219 L 34 6.199219 L 34 39 L 5.785156 39 Z M 5.785156 6.199219 " clip-rule="nonzero"/></clipPath></defs><g clip-path="url(#a478b3f92d)"><path fill="#edf6ff" d="M 37.070312 40.425781 C 36.765625 41.179688 35.984375 41.625 35.1875 41.492188 C 32.613281 41.078125 29.730469 40.449219 26.628906 39.492188 C 22.871094 38.328125 19.621094 36.9375 16.910156 35.570312 C 16.179688 35.203125 15.800781 34.375 15.996094 33.578125 C 16.949219 29.71875 18.078125 25.652344 19.429688 21.414062 C 20.769531 17.203125 22.1875 13.257812 23.628906 9.585938 C 23.9375 8.800781 24.761719 8.347656 25.582031 8.511719 C 28.449219 9.089844 31.609375 9.886719 34.972656 10.984375 C 38.226562 12.046875 41.15625 13.222656 43.75 14.402344 C 44.507812 14.75 44.914062 15.59375 44.722656 16.410156 C 43.632812 21.015625 42.257812 25.941406 40.523438 31.105469 C 39.417969 34.390625 38.257812 37.496094 37.074219 40.425781 Z M 37.070312 40.425781 " fill-opacity="1" fill-rule="nonzero"/><path fill="#1d1d1b" d="M 35.46875 41.664062 C 35.367188 41.664062 35.265625 41.65625 35.164062 41.640625 C 32.273438 41.175781 29.386719 40.5 26.585938 39.632812 C 23.25 38.601562 19.972656 37.277344 16.847656 35.703125 C 16.046875 35.300781 15.640625 34.410156 15.855469 33.539062 C 16.863281 29.460938 18.015625 25.363281 19.289062 21.367188 C 20.554688 17.394531 21.96875 13.410156 23.492188 9.53125 C 23.828125 8.675781 24.71875 8.1875 25.613281 8.367188 C 28.78125 9.003906 31.945312 9.839844 35.019531 10.839844 C 38 11.8125 40.953125 12.964844 43.808594 14.269531 C 44.628906 14.640625 45.074219 15.554688 44.863281 16.441406 C 43.691406 21.390625 42.277344 26.339844 40.660156 31.152344 C 39.609375 34.277344 38.445312 37.417969 37.207031 40.480469 L 37.070312 40.421875 L 37.207031 40.480469 C 36.914062 41.207031 36.222656 41.664062 35.46875 41.664062 Z M 25.242188 8.625 C 24.601562 8.625 24.007812 9.019531 23.765625 9.640625 C 22.246094 13.515625 20.832031 17.492188 19.570312 21.457031 C 18.296875 25.449219 17.144531 29.539062 16.140625 33.613281 C 15.960938 34.347656 16.304688 35.101562 16.976562 35.441406 C 20.089844 37.007812 23.351562 38.324219 26.671875 39.351562 C 29.460938 40.210938 32.332031 40.882812 35.210938 41.347656 C 35.945312 41.464844 36.65625 41.0625 36.9375 40.367188 C 38.171875 37.3125 39.332031 34.179688 40.382812 31.058594 C 41.996094 26.253906 43.410156 21.3125 44.578125 16.375 C 44.753906 15.625 44.378906 14.855469 43.6875 14.539062 C 40.84375 13.242188 37.898438 12.09375 34.929688 11.125 C 31.867188 10.125 28.710938 9.296875 25.554688 8.65625 C 25.449219 8.636719 25.34375 8.625 25.242188 8.625 Z M 25.242188 8.625 " fill-opacity="1" fill-rule="nonzero"/></g><path fill="#8ec140" d="M 39.371094 25.738281 C 38.664062 25.28125 37.945312 24.847656 37.214844 24.433594 C 36.464844 24.007812 35.699219 23.605469 34.925781 23.226562 C 30.828125 21.222656 26.414062 19.871094 21.902344 19.25 C 21.289062 21.300781 20.785156 23.292969 20.367188 25.203125 C 20.261719 25.691406 20.636719 26.242188 21.269531 26.527344 C 23.242188 27.414062 25.527344 28.339844 28.101562 29.207031 C 28.597656 29.375 29.105469 29.539062 29.621094 29.699219 C 32.265625 30.527344 34.707031 31.136719 36.875 31.582031 C 37.546875 31.722656 38.164062 31.5 38.363281 31.046875 C 39.019531 29.550781 39.65625 27.976562 40.25 26.316406 C 39.960938 26.121094 39.667969 25.925781 39.371094 25.738281 Z M 39.371094 25.738281 " fill-opacity="1" fill-rule="nonzero"/><path fill="#1d1d1b" d="M 37.269531 31.773438 C 37.132812 31.773438 36.988281 31.757812 36.84375 31.730469 C 34.414062 31.226562 31.96875 30.59375 29.578125 29.84375 C 29.074219 29.683594 28.558594 29.515625 28.054688 29.347656 C 25.726562 28.5625 23.421875 27.660156 21.210938 26.660156 C 20.507812 26.347656 20.101562 25.734375 20.226562 25.171875 C 20.664062 23.167969 21.179688 21.160156 21.761719 19.207031 C 21.78125 19.136719 21.847656 19.089844 21.921875 19.101562 C 26.449219 19.726562 30.84375 21.070312 34.988281 23.09375 C 35.757812 23.46875 36.53125 23.878906 37.289062 24.304688 C 38.027344 24.722656 38.753906 25.160156 39.449219 25.613281 C 39.71875 25.785156 40.007812 25.976562 40.328125 26.195312 C 40.386719 26.234375 40.410156 26.304688 40.386719 26.367188 C 39.816406 27.957031 39.179688 29.550781 38.496094 31.109375 C 38.308594 31.527344 37.832031 31.773438 37.269531 31.773438 Z M 22.007812 19.414062 C 21.441406 21.324219 20.9375 23.28125 20.511719 25.234375 C 20.417969 25.652344 20.765625 26.136719 21.328125 26.390625 C 23.535156 27.382812 25.828125 28.285156 28.148438 29.066406 C 28.652344 29.234375 29.160156 29.402344 29.664062 29.558594 C 32.046875 30.304688 34.480469 30.9375 36.902344 31.4375 C 37.5 31.5625 38.058594 31.375 38.226562 30.988281 C 38.894531 29.472656 39.515625 27.921875 40.074219 26.378906 C 39.789062 26.1875 39.535156 26.015625 39.292969 25.863281 C 38.601562 25.414062 37.878906 24.976562 37.144531 24.5625 C 36.394531 24.140625 35.625 23.734375 34.863281 23.359375 C 30.785156 21.367188 26.460938 20.039062 22.007812 19.414062 Z M 22.007812 19.414062 " fill-opacity="1" fill-rule="nonzero"/><path fill="#9cbbff" d="M 40.5625 25.429688 C 40.457031 25.726562 40.351562 26.023438 40.25 26.316406 C 38.550781 25.160156 36.769531 24.128906 34.925781 23.226562 C 30.824219 21.222656 26.414062 19.871094 21.902344 19.25 C 22.046875 18.769531 22.195312 18.28125 22.351562 17.792969 C 23.164062 15.238281 24.0625 12.855469 24.996094 10.648438 C 25.195312 10.175781 25.847656 9.953125 26.542969 10.117188 C 28.964844 10.6875 31.644531 11.417969 34.519531 12.351562 C 37.296875 13.257812 39.816406 14.210938 42.050781 15.144531 C 42.707031 15.417969 43.105469 15.976562 43.003906 16.476562 C 42.425781 19.300781 41.636719 22.304688 40.5625 25.429688 Z M 40.5625 25.429688 " fill-opacity="1" fill-rule="nonzero"/><path fill="#1d1d1b" d="M 40.25 26.46875 C 40.21875 26.46875 40.191406 26.457031 40.167969 26.441406 C 38.488281 25.296875 36.703125 24.261719 34.863281 23.359375 C 30.746094 21.347656 26.378906 20.015625 21.882812 19.394531 C 21.839844 19.390625 21.800781 19.367188 21.777344 19.328125 C 21.753906 19.292969 21.75 19.246094 21.761719 19.207031 C 21.910156 18.710938 22.0625 18.21875 22.210938 17.746094 C 22.980469 15.332031 23.875 12.925781 24.863281 10.59375 C 25.089844 10.050781 25.8125 9.792969 26.578125 9.972656 C 29.257812 10.605469 31.945312 11.359375 34.566406 12.210938 C 37.105469 13.039062 39.644531 13.980469 42.105469 15.007812 C 42.824219 15.308594 43.261719 15.9375 43.144531 16.507812 C 42.523438 19.546875 41.699219 22.5625 40.699219 25.476562 C 40.597656 25.777344 40.492188 26.074219 40.386719 26.371094 C 40.371094 26.414062 40.335938 26.445312 40.292969 26.460938 C 40.277344 26.464844 40.261719 26.46875 40.246094 26.46875 Z M 22.09375 19.125 C 26.558594 19.757812 30.898438 21.09375 34.988281 23.09375 C 36.785156 23.972656 38.53125 24.980469 40.171875 26.089844 C 40.257812 25.855469 40.339844 25.617188 40.421875 25.378906 C 41.417969 22.476562 42.238281 19.472656 42.859375 16.449219 C 42.945312 16.019531 42.582031 15.527344 41.992188 15.28125 C 39.539062 14.257812 37.007812 13.320312 34.472656 12.496094 C 31.863281 11.644531 29.183594 10.894531 26.507812 10.261719 C 25.882812 10.113281 25.300781 10.300781 25.128906 10.707031 C 24.144531 13.035156 23.257812 15.433594 22.488281 17.839844 C 22.355469 18.257812 22.222656 18.6875 22.089844 19.125 Z M 22.09375 19.125 " fill-opacity="1" fill-rule="nonzero"/><path fill="#1d1d1b" d="M 28.363281 26.457031 C 28.15625 26.457031 27.949219 26.398438 27.773438 26.277344 C 27.597656 26.15625 27.46875 25.992188 27.34375 25.832031 C 27.179688 25.625 27.027344 25.429688 26.8125 25.375 C 26.628906 25.328125 26.421875 25.394531 26.207031 25.460938 C 25.921875 25.546875 25.625 25.636719 25.335938 25.496094 C 25.136719 25.394531 25.015625 25.21875 24.902344 25.046875 C 24.855469 24.976562 24.8125 24.90625 24.761719 24.847656 C 24.605469 24.65625 24.359375 24.539062 24.085938 24.515625 C 23.816406 24.496094 23.554688 24.574219 23.367188 24.734375 C 23.304688 24.789062 23.214844 24.78125 23.160156 24.722656 C 23.109375 24.660156 23.113281 24.566406 23.175781 24.511719 C 23.417969 24.296875 23.761719 24.191406 24.109375 24.222656 C 24.457031 24.25 24.777344 24.40625 24.984375 24.65625 C 25.042969 24.730469 25.097656 24.808594 25.148438 24.882812 C 25.242188 25.027344 25.332031 25.164062 25.464844 25.230469 C 25.648438 25.320312 25.867188 25.253906 26.121094 25.175781 C 26.367188 25.101562 26.621094 25.023438 26.882812 25.089844 C 27.195312 25.167969 27.386719 25.410156 27.570312 25.648438 C 27.691406 25.796875 27.800781 25.9375 27.9375 26.035156 C 28.230469 26.234375 28.667969 26.191406 28.914062 25.9375 C 28.96875 25.878906 29.0625 25.878906 29.121094 25.933594 C 29.179688 25.992188 29.179688 26.085938 29.125 26.144531 C 28.925781 26.351562 28.640625 26.457031 28.363281 26.457031 Z M 28.363281 26.457031 " fill-opacity="1" fill-rule="nonzero"/><path fill="#1d1d1b" d="M 29.738281 29.09375 C 29.535156 29.09375 29.339844 29.027344 29.1875 28.910156 C 29.070312 28.820312 28.984375 28.707031 28.898438 28.601562 C 28.773438 28.445312 28.667969 28.3125 28.515625 28.269531 C 28.367188 28.230469 28.203125 28.292969 28.03125 28.355469 C 27.875 28.414062 27.714844 28.472656 27.539062 28.472656 C 27.195312 28.472656 26.902344 28.261719 26.691406 28.070312 C 26.664062 28.042969 26.632812 28.019531 26.601562 27.992188 C 26.425781 27.828125 26.257812 27.675781 26.054688 27.609375 C 25.855469 27.542969 25.582031 27.605469 25.519531 27.789062 C 25.492188 27.867188 25.40625 27.90625 25.332031 27.878906 C 25.253906 27.851562 25.214844 27.769531 25.242188 27.691406 C 25.367188 27.335938 25.808594 27.214844 26.144531 27.328125 C 26.40625 27.414062 26.605469 27.59375 26.800781 27.769531 C 26.828125 27.796875 26.855469 27.824219 26.886719 27.847656 C 27.058594 28 27.285156 28.175781 27.527344 28.175781 C 27.53125 28.175781 27.53125 28.175781 27.535156 28.175781 C 27.660156 28.175781 27.789062 28.128906 27.929688 28.078125 C 28.128906 28.003906 28.355469 27.917969 28.59375 27.984375 C 28.835938 28.050781 28.988281 28.242188 29.125 28.414062 C 29.203125 28.511719 29.277344 28.605469 29.367188 28.675781 C 29.503906 28.78125 29.695312 28.820312 29.886719 28.78125 C 30.082031 28.742188 30.242188 28.628906 30.328125 28.476562 C 30.367188 28.40625 30.453125 28.378906 30.527344 28.417969 C 30.597656 28.457031 30.621094 28.546875 30.582031 28.617188 C 30.457031 28.847656 30.226562 29.011719 29.949219 29.070312 C 29.878906 29.085938 29.808594 29.09375 29.742188 29.09375 Z M 29.738281 29.09375 " fill-opacity="1" fill-rule="nonzero"/><g clip-path="url(#b60d7e6925)"><path fill="#edf6ff" d="M 33.324219 32.105469 C 33.453125 32.910156 33.011719 33.699219 32.261719 34.003906 C 29.851562 34.996094 27.058594 35.96875 23.914062 36.769531 C 20.105469 37.738281 16.609375 38.246094 13.589844 38.496094 C 12.777344 38.5625 12.027344 38.054688 11.785156 37.269531 C 10.617188 33.472656 9.496094 29.402344 8.476562 25.070312 C 7.460938 20.769531 6.648438 16.652344 5.996094 12.761719 C 5.855469 11.925781 6.328125 11.109375 7.117188 10.820312 C 9.863281 9.816406 12.972656 8.84375 16.414062 8.023438 C 19.742188 7.226562 22.851562 6.703125 25.675781 6.359375 C 26.5 6.257812 27.285156 6.765625 27.535156 7.566406 C 28.96875 12.078125 30.324219 17.007812 31.488281 22.332031 C 32.230469 25.714844 32.835938 28.980469 33.324219 32.105469 Z M 33.324219 32.105469 " fill-opacity="1" fill-rule="nonzero"/><path fill="#1d1d1b" d="M 13.445312 38.652344 C 12.617188 38.652344 11.890625 38.121094 11.644531 37.3125 C 10.410156 33.300781 9.296875 29.191406 8.332031 25.105469 C 7.375 21.046875 6.539062 16.898438 5.851562 12.785156 C 5.699219 11.878906 6.210938 10.992188 7.066406 10.679688 C 10.105469 9.570312 13.238281 8.628906 16.382812 7.878906 C 19.429688 7.152344 22.550781 6.589844 25.660156 6.210938 C 26.550781 6.101562 27.402344 6.652344 27.675781 7.519531 C 29.214844 12.363281 30.546875 17.335938 31.632812 22.300781 C 32.339844 25.527344 32.957031 28.820312 33.46875 32.082031 C 33.609375 32.960938 33.132812 33.808594 32.320312 34.144531 C 29.605469 35.257812 26.789062 36.1875 23.949219 36.914062 C 20.566406 37.773438 17.085938 38.359375 13.601562 38.644531 C 13.546875 38.648438 13.496094 38.652344 13.441406 38.652344 Z M 25.882812 6.496094 C 25.820312 6.496094 25.757812 6.5 25.695312 6.507812 C 22.597656 6.882812 19.488281 7.441406 16.449219 8.167969 C 13.316406 8.914062 10.195312 9.851562 7.167969 10.957031 C 6.445312 11.222656 6.011719 11.96875 6.140625 12.734375 C 6.828125 16.84375 7.664062 20.984375 8.617188 25.035156 C 9.582031 29.117188 10.695312 33.21875 11.925781 37.226562 C 12.148438 37.949219 12.828125 38.414062 13.578125 38.351562 C 17.046875 38.0625 20.511719 37.484375 23.878906 36.625 C 26.707031 35.90625 29.507812 34.976562 32.210938 33.867188 C 32.898438 33.585938 33.300781 32.871094 33.183594 32.128906 C 32.671875 28.871094 32.054688 25.585938 31.347656 22.363281 C 30.265625 17.40625 28.933594 12.445312 27.398438 7.609375 C 27.1875 6.941406 26.566406 6.496094 25.886719 6.496094 Z M 25.882812 6.496094 " fill-opacity="1" fill-rule="nonzero"/></g><path fill="#3ea6a7" d="M 22.988281 21.332031 C 22.667969 21.554688 22.273438 21.65625 21.960938 21.890625 C 21.652344 22.125 21.441406 22.589844 21.667969 22.910156 C 21.820312 23.121094 22.105469 23.1875 22.273438 23.382812 C 22.558594 23.710938 22.378906 24.257812 22.046875 24.53125 C 21.710938 24.804688 21.269531 24.898438 20.863281 25.054688 C 20.460938 25.210938 20.046875 25.480469 19.949219 25.90625 C 19.886719 26.171875 19.960938 26.449219 19.964844 26.722656 C 19.96875 26.886719 19.941406 27.046875 19.890625 27.203125 C 17.242188 27.804688 14.816406 28.210938 12.671875 28.484375 C 11.984375 28.570312 11.382812 28.296875 11.222656 27.824219 C 10.597656 25.972656 10.007812 24.003906 9.476562 21.929688 C 13.65625 20.097656 18.125 18.949219 22.660156 18.519531 C 22.632812 18.542969 22.609375 18.566406 22.585938 18.59375 C 22.328125 18.863281 22.222656 19.3125 22.4375 19.613281 C 22.675781 19.933594 23.183594 19.976562 23.371094 20.328125 C 23.558594 20.675781 23.308594 21.109375 22.988281 21.332031 Z M 22.988281 21.332031 " fill-opacity="1" fill-rule="nonzero"/><path fill="#1d1d1b" d="M 12.417969 28.648438 C 11.773438 28.648438 11.246094 28.347656 11.085938 27.871094 C 10.429688 25.929688 9.84375 23.941406 9.335938 21.964844 C 9.320312 21.894531 9.355469 21.820312 9.421875 21.792969 C 13.613281 19.957031 18.0625 18.808594 22.644531 18.371094 C 22.710938 18.367188 22.769531 18.402344 22.792969 18.460938 C 22.820312 18.523438 22.804688 18.589844 22.753906 18.632812 C 22.734375 18.652344 22.710938 18.671875 22.691406 18.695312 C 22.488281 18.914062 22.382812 19.285156 22.558594 19.527344 C 22.648438 19.648438 22.800781 19.730469 22.960938 19.8125 C 23.167969 19.921875 23.382812 20.035156 23.503906 20.261719 C 23.730469 20.6875 23.449219 21.195312 23.074219 21.457031 C 22.910156 21.566406 22.734375 21.648438 22.566406 21.726562 C 22.378906 21.8125 22.203125 21.894531 22.050781 22.011719 C 21.792969 22.207031 21.621094 22.589844 21.789062 22.828125 C 21.851562 22.914062 21.953125 22.976562 22.0625 23.039062 C 22.175781 23.109375 22.289062 23.179688 22.382812 23.289062 C 22.519531 23.441406 22.578125 23.640625 22.558594 23.863281 C 22.535156 24.15625 22.375 24.457031 22.136719 24.648438 C 21.867188 24.871094 21.542969 24.980469 21.226562 25.089844 C 21.125 25.125 21.019531 25.160156 20.917969 25.199219 C 20.589844 25.324219 20.183594 25.554688 20.09375 25.941406 C 20.058594 26.09375 20.074219 26.257812 20.09375 26.429688 C 20.101562 26.527344 20.113281 26.625 20.113281 26.722656 C 20.117188 26.898438 20.089844 27.074219 20.03125 27.25 C 20.015625 27.300781 19.976562 27.339844 19.925781 27.351562 C 17.53125 27.898438 15.097656 28.328125 12.691406 28.632812 C 12.597656 28.644531 12.507812 28.652344 12.417969 28.652344 Z M 9.652344 22.015625 C 10.148438 23.941406 10.726562 25.878906 11.363281 27.777344 C 11.5 28.179688 12.042969 28.414062 12.65625 28.335938 C 15.023438 28.035156 17.417969 27.613281 19.777344 27.078125 C 19.808594 26.960938 19.820312 26.839844 19.820312 26.726562 C 19.820312 26.640625 19.808594 26.550781 19.800781 26.457031 C 19.78125 26.269531 19.761719 26.070312 19.808594 25.871094 C 19.925781 25.355469 20.421875 25.070312 20.8125 24.917969 C 20.917969 24.878906 21.027344 24.839844 21.132812 24.804688 C 21.4375 24.703125 21.722656 24.605469 21.953125 24.417969 C 22.128906 24.273438 22.25 24.046875 22.269531 23.835938 C 22.277344 23.738281 22.265625 23.597656 22.164062 23.480469 C 22.101562 23.40625 22.007812 23.351562 21.910156 23.292969 C 21.78125 23.214844 21.648438 23.132812 21.550781 22.996094 C 21.269531 22.601562 21.5 22.054688 21.875 21.773438 C 22.054688 21.636719 22.253906 21.546875 22.445312 21.457031 C 22.609375 21.378906 22.765625 21.308594 22.90625 21.210938 C 23.179688 21.023438 23.382812 20.660156 23.246094 20.402344 C 23.167969 20.253906 23 20.167969 22.824219 20.074219 C 22.644531 19.980469 22.453125 19.878906 22.324219 19.699219 C 22.101562 19.398438 22.152344 19.003906 22.324219 18.703125 C 17.9375 19.152344 13.675781 20.265625 9.652344 22.015625 Z M 22.988281 21.332031 Z M 22.988281 21.332031 " fill-opacity="1" fill-rule="nonzero"/><path fill="#fc7f11" d="M 28.800781 18.378906 C 29.140625 20.109375 29.410156 21.789062 29.613281 23.410156 C 29.675781 23.902344 29.261719 24.417969 28.617188 24.648438 C 26.53125 25.398438 24.132812 26.15625 21.445312 26.832031 C 20.921875 26.960938 20.402344 27.085938 19.890625 27.203125 C 19.941406 27.046875 19.96875 26.886719 19.964844 26.722656 C 19.960938 26.449219 19.886719 26.171875 19.949219 25.90625 C 20.046875 25.480469 20.460938 25.210938 20.867188 25.054688 C 21.269531 24.898438 21.710938 24.804688 22.046875 24.53125 C 22.382812 24.257812 22.558594 23.710938 22.273438 23.382812 C 22.105469 23.1875 21.820312 23.121094 21.667969 22.910156 C 21.441406 22.589844 21.652344 22.125 21.960938 21.890625 C 22.273438 21.652344 22.667969 21.550781 22.988281 21.332031 C 23.3125 21.109375 23.558594 20.675781 23.375 20.328125 C 23.1875 19.976562 22.675781 19.933594 22.441406 19.613281 C 22.222656 19.3125 22.332031 18.863281 22.585938 18.59375 C 22.609375 18.566406 22.636719 18.542969 22.660156 18.519531 C 23.515625 18.4375 24.378906 18.382812 25.238281 18.351562 C 26.074219 18.324219 26.914062 18.320312 27.75 18.339844 C 28.101562 18.347656 28.449219 18.363281 28.800781 18.378906 Z M 28.800781 18.378906 " fill-opacity="1" fill-rule="nonzero"/><path fill="#1d1d1b" d="M 19.890625 27.351562 C 19.851562 27.351562 19.8125 27.332031 19.785156 27.300781 C 19.75 27.261719 19.734375 27.207031 19.753906 27.15625 C 19.800781 27.011719 19.820312 26.867188 19.820312 26.726562 C 19.816406 26.636719 19.808594 26.550781 19.800781 26.457031 C 19.78125 26.269531 19.757812 26.070312 19.804688 25.871094 C 19.925781 25.355469 20.417969 25.070312 20.8125 24.917969 C 20.917969 24.878906 21.027344 24.839844 21.132812 24.804688 C 21.4375 24.703125 21.722656 24.605469 21.953125 24.417969 C 22.125 24.273438 22.25 24.046875 22.265625 23.835938 C 22.273438 23.738281 22.265625 23.597656 22.164062 23.480469 C 22.097656 23.40625 22.007812 23.351562 21.910156 23.292969 C 21.78125 23.214844 21.648438 23.132812 21.550781 22.996094 C 21.269531 22.601562 21.5 22.054688 21.875 21.769531 C 22.054688 21.636719 22.25 21.542969 22.441406 21.453125 C 22.609375 21.378906 22.765625 21.304688 22.90625 21.207031 C 23.175781 21.023438 23.382812 20.660156 23.246094 20.398438 C 23.167969 20.253906 23 20.167969 22.824219 20.074219 C 22.640625 19.976562 22.453125 19.878906 22.324219 19.699219 C 22.046875 19.320312 22.195312 18.792969 22.480469 18.492188 C 22.507812 18.460938 22.535156 18.433594 22.566406 18.40625 C 22.589844 18.386719 22.617188 18.375 22.648438 18.371094 C 23.496094 18.289062 24.367188 18.234375 25.234375 18.203125 C 26.082031 18.175781 26.929688 18.171875 27.753906 18.191406 C 28.074219 18.199219 28.417969 18.210938 28.808594 18.230469 C 28.875 18.234375 28.929688 18.285156 28.945312 18.351562 C 29.273438 20.007812 29.546875 21.703125 29.761719 23.390625 C 29.832031 23.957031 29.382812 24.53125 28.664062 24.785156 C 26.328125 25.628906 23.914062 26.363281 21.484375 26.972656 C 20.972656 27.101562 20.449219 27.226562 19.925781 27.347656 C 19.914062 27.347656 19.902344 27.351562 19.894531 27.351562 Z M 22.722656 18.664062 C 22.710938 18.671875 22.703125 18.683594 22.691406 18.695312 C 22.488281 18.910156 22.382812 19.28125 22.558594 19.523438 C 22.648438 19.648438 22.800781 19.730469 22.960938 19.8125 C 23.167969 19.921875 23.382812 20.035156 23.503906 20.261719 C 23.730469 20.6875 23.449219 21.195312 23.074219 21.457031 C 22.910156 21.566406 22.734375 21.648438 22.566406 21.726562 C 22.378906 21.8125 22.203125 21.894531 22.050781 22.011719 C 21.792969 22.207031 21.621094 22.589844 21.789062 22.824219 C 21.851562 22.914062 21.953125 22.972656 22.0625 23.039062 C 22.175781 23.109375 22.289062 23.179688 22.382812 23.289062 C 22.519531 23.441406 22.578125 23.640625 22.558594 23.863281 C 22.535156 24.15625 22.375 24.457031 22.136719 24.648438 C 21.867188 24.871094 21.542969 24.980469 21.226562 25.085938 C 21.125 25.121094 21.019531 25.15625 20.917969 25.199219 C 20.589844 25.324219 20.183594 25.554688 20.09375 25.941406 C 20.058594 26.09375 20.074219 26.257812 20.09375 26.429688 C 20.101562 26.523438 20.113281 26.625 20.113281 26.722656 C 20.117188 26.816406 20.109375 26.910156 20.09375 27.007812 C 20.535156 26.90625 20.980469 26.796875 21.410156 26.6875 C 23.832031 26.082031 26.238281 25.347656 28.566406 24.511719 C 29.140625 24.304688 29.519531 23.851562 29.46875 23.433594 C 29.261719 21.789062 28.996094 20.140625 28.679688 18.523438 C 28.339844 18.507812 28.035156 18.5 27.746094 18.492188 C 26.925781 18.472656 26.085938 18.476562 25.246094 18.503906 C 24.402344 18.535156 23.554688 18.585938 22.722656 18.664062 Z M 22.722656 18.664062 " fill-opacity="1" fill-rule="nonzero"/><path fill="#9cbbff" d="M 28.609375 17.453125 C 28.675781 17.765625 28.738281 18.074219 28.800781 18.378906 C 26.753906 18.277344 24.699219 18.328125 22.660156 18.519531 C 18.125 18.949219 13.65625 20.097656 9.480469 21.929688 C 9.355469 21.441406 9.234375 20.945312 9.117188 20.449219 C 8.5 17.835938 8.042969 15.332031 7.710938 12.957031 C 7.640625 12.445312 8.082031 11.914062 8.761719 11.691406 C 11.125 10.914062 13.792969 10.132812 16.730469 9.433594 C 19.570312 8.753906 22.214844 8.253906 24.605469 7.882812 C 25.304688 7.773438 25.933594 8.042969 26.105469 8.523438 C 27.058594 11.238281 27.925781 14.222656 28.609375 17.457031 Z M 28.609375 17.453125 " fill-opacity="1" fill-rule="nonzero"/><path fill="#1d1d1b" d="M 9.480469 22.074219 C 9.457031 22.074219 9.433594 22.070312 9.414062 22.0625 C 9.375 22.042969 9.347656 22.007812 9.335938 21.964844 C 9.210938 21.460938 9.085938 20.964844 8.972656 20.480469 C 8.390625 18.011719 7.917969 15.488281 7.566406 12.976562 C 7.484375 12.394531 7.96875 11.792969 8.714844 11.546875 C 11.335938 10.6875 14.019531 9.925781 16.695312 9.285156 C 19.296875 8.664062 21.949219 8.144531 24.582031 7.734375 C 25.351562 7.613281 26.046875 7.925781 26.242188 8.472656 C 27.269531 11.394531 28.113281 14.40625 28.753906 17.421875 C 28.820312 17.734375 28.882812 18.042969 28.945312 18.351562 C 28.953125 18.394531 28.941406 18.441406 28.910156 18.476562 C 28.882812 18.511719 28.839844 18.53125 28.792969 18.527344 C 26.769531 18.425781 24.710938 18.472656 22.675781 18.667969 C 18.121094 19.097656 13.699219 20.242188 9.539062 22.0625 C 9.519531 22.070312 9.5 22.074219 9.480469 22.074219 Z M 24.914062 8.003906 C 24.820312 8.003906 24.726562 8.011719 24.628906 8.027344 C 22 8.4375 19.355469 8.957031 16.765625 9.578125 C 14.09375 10.214844 11.417969 10.972656 8.804688 11.832031 C 8.195312 12.03125 7.792969 12.496094 7.855469 12.933594 C 8.207031 15.4375 8.679688 17.953125 9.257812 20.414062 C 9.359375 20.839844 9.464844 21.277344 9.578125 21.722656 C 13.722656 19.929688 18.121094 18.800781 22.644531 18.371094 C 24.636719 18.183594 26.644531 18.132812 28.617188 18.222656 C 28.570312 17.976562 28.519531 17.730469 28.464844 17.484375 C 27.828125 14.480469 26.988281 11.480469 25.964844 8.570312 C 25.839844 8.222656 25.417969 8.003906 24.910156 8.003906 Z M 24.914062 8.003906 " fill-opacity="1" fill-rule="nonzero"/><path fill="#f7be2f" d="M 27.75 18.339844 C 26.914062 18.320312 26.074219 18.324219 25.238281 18.351562 C 24.316406 16.425781 22.785156 14.792969 20.910156 13.785156 C 22.53125 13.664062 23.96875 14.265625 25.207031 15.324219 C 26.210938 16.179688 27.011719 17.242188 27.75 18.339844 Z M 27.75 18.339844 " fill-opacity="1" fill-rule="nonzero"/><path fill="#1d1d1b" d="M 25.238281 18.5 C 25.183594 18.5 25.132812 18.46875 25.105469 18.417969 C 24.195312 16.503906 22.679688 14.90625 20.839844 13.914062 C 20.785156 13.882812 20.753906 13.820312 20.765625 13.753906 C 20.78125 13.691406 20.835938 13.640625 20.898438 13.636719 C 22.464844 13.519531 23.945312 14.050781 25.304688 15.210938 C 26.398438 16.148438 27.25 17.332031 27.871094 18.257812 C 27.902344 18.304688 27.90625 18.363281 27.878906 18.414062 C 27.851562 18.460938 27.800781 18.488281 27.746094 18.492188 C 26.925781 18.46875 26.085938 18.472656 25.242188 18.503906 C 25.242188 18.503906 25.242188 18.503906 25.238281 18.503906 Z M 21.441406 13.917969 C 23.097656 14.929688 24.464844 16.433594 25.328125 18.203125 C 26.046875 18.179688 26.765625 18.175781 27.46875 18.1875 C 26.875 17.316406 26.089844 16.273438 25.113281 15.4375 C 23.964844 14.460938 22.734375 13.949219 21.441406 13.917969 Z M 21.441406 13.917969 " fill-opacity="1" fill-rule="nonzero"/><path fill="#8ec140" d="M 20.96875 13.863281 C 20.402344 13.914062 19.84375 14.105469 19.40625 14.46875 C 18.964844 14.828125 18.65625 15.367188 18.628906 15.9375 C 18.597656 16.507812 18.867188 17.101562 19.347656 17.402344 C 19.390625 16.035156 19.96875 14.785156 20.96875 13.863281 Z M 20.96875 13.863281 " fill-opacity="1" fill-rule="nonzero"/><path fill="#1d1d1b" d="M 19.347656 17.550781 C 19.320312 17.550781 19.292969 17.542969 19.269531 17.527344 C 18.753906 17.207031 18.445312 16.578125 18.480469 15.929688 C 18.511719 15.34375 18.824219 14.757812 19.3125 14.355469 C 19.75 13.996094 20.316406 13.773438 20.953125 13.714844 C 21.019531 13.710938 21.078125 13.746094 21.101562 13.804688 C 21.128906 13.863281 21.113281 13.929688 21.066406 13.972656 C 20.097656 14.871094 19.539062 16.085938 19.496094 17.40625 C 19.492188 17.457031 19.464844 17.507812 19.417969 17.53125 C 19.394531 17.542969 19.371094 17.550781 19.347656 17.550781 Z M 20.542969 14.082031 C 20.144531 14.175781 19.789062 14.34375 19.496094 14.582031 C 19.070312 14.933594 18.800781 15.441406 18.773438 15.945312 C 18.75 16.382812 18.921875 16.824219 19.21875 17.109375 C 19.316406 15.976562 19.777344 14.921875 20.542969 14.078125 Z M 20.542969 14.082031 " fill-opacity="1" fill-rule="nonzero"/><path fill="#8ec140" d="M 23.414062 10.785156 C 22.855469 10.695312 22.265625 10.746094 21.75 10.992188 C 21.238281 11.234375 20.8125 11.679688 20.644531 12.226562 C 20.476562 12.773438 20.597656 13.410156 20.992188 13.820312 C 21.363281 12.507812 22.222656 11.4375 23.414062 10.785156 Z M 23.414062 10.785156 " fill-opacity="1" fill-rule="nonzero"/><path fill="#1d1d1b" d="M 20.992188 13.96875 C 20.953125 13.96875 20.914062 13.953125 20.886719 13.925781 C 20.464844 13.488281 20.3125 12.804688 20.503906 12.183594 C 20.675781 11.625 21.117188 11.128906 21.691406 10.855469 C 22.203125 10.613281 22.804688 10.539062 23.4375 10.640625 C 23.5 10.648438 23.550781 10.699219 23.558594 10.761719 C 23.570312 10.824219 23.539062 10.886719 23.484375 10.917969 C 22.328125 11.546875 21.492188 12.59375 21.132812 13.863281 C 21.121094 13.914062 21.078125 13.953125 21.027344 13.964844 C 21.015625 13.96875 21.003906 13.96875 20.992188 13.96875 Z M 22.898438 10.894531 C 22.507812 10.894531 22.140625 10.96875 21.8125 11.125 C 21.316406 11.359375 20.929688 11.789062 20.785156 12.269531 C 20.65625 12.691406 20.71875 13.15625 20.933594 13.507812 C 21.304688 12.429688 22.007812 11.523438 22.949219 10.894531 C 22.933594 10.894531 22.917969 10.894531 22.902344 10.894531 Z M 22.898438 10.894531 " fill-opacity="1" fill-rule="nonzero"/><path fill="#8ec140" d="M 20.910156 13.824219 C 20.601562 13.34375 20.171875 12.933594 19.648438 12.710938 C 19.128906 12.488281 18.511719 12.464844 18 12.707031 C 17.484375 12.945312 17.09375 13.464844 17.054688 14.03125 C 18.269531 13.433594 19.636719 13.363281 20.910156 13.820312 Z M 20.910156 13.824219 " fill-opacity="1" fill-rule="nonzero"/><path fill="#1d1d1b" d="M 17.054688 14.183594 C 17.027344 14.183594 17 14.171875 16.972656 14.15625 C 16.929688 14.128906 16.90625 14.078125 16.910156 14.023438 C 16.949219 13.414062 17.351562 12.847656 17.9375 12.574219 C 18.464844 12.328125 19.125 12.328125 19.707031 12.578125 C 20.226562 12.796875 20.6875 13.203125 21.035156 13.742188 C 21.070312 13.796875 21.066406 13.863281 21.027344 13.914062 C 20.988281 13.964844 20.921875 13.984375 20.863281 13.960938 C 19.621094 13.515625 18.292969 13.589844 17.121094 14.167969 C 17.097656 14.175781 17.078125 14.183594 17.054688 14.183594 Z M 18.796875 12.683594 C 18.535156 12.683594 18.285156 12.738281 18.058594 12.839844 C 17.664062 13.027344 17.359375 13.386719 17.246094 13.78125 C 18.289062 13.339844 19.425781 13.257812 20.523438 13.546875 C 20.253906 13.234375 19.9375 12.996094 19.589844 12.847656 C 19.335938 12.738281 19.0625 12.683594 18.792969 12.683594 Z M 18.796875 12.683594 " fill-opacity="1" fill-rule="nonzero"/><path fill="#8ec140" d="M 21.027344 13.960938 C 20.855469 14.402344 20.789062 14.890625 20.886719 15.347656 C 20.988281 15.808594 21.265625 16.238281 21.671875 16.472656 C 22.078125 16.707031 22.609375 16.726562 23.007812 16.480469 C 22.027344 15.9375 21.328125 15.046875 21.027344 13.960938 Z M 21.027344 13.960938 " fill-opacity="1" fill-rule="nonzero"/><path fill="#1d1d1b" d="M 22.359375 16.804688 C 22.101562 16.804688 21.835938 16.738281 21.597656 16.601562 C 21.179688 16.355469 20.859375 15.898438 20.746094 15.378906 C 20.644531 14.917969 20.691406 14.40625 20.890625 13.90625 C 20.914062 13.847656 20.96875 13.8125 21.035156 13.8125 C 21.097656 13.816406 21.148438 13.859375 21.167969 13.921875 C 21.460938 14.96875 22.136719 15.832031 23.078125 16.347656 C 23.125 16.375 23.152344 16.421875 23.152344 16.476562 C 23.15625 16.527344 23.128906 16.578125 23.085938 16.605469 C 22.867188 16.738281 22.617188 16.804688 22.359375 16.804688 Z M 21.035156 14.449219 C 20.972656 14.746094 20.972656 15.042969 21.03125 15.316406 C 21.128906 15.757812 21.394531 16.140625 21.746094 16.34375 C 22.035156 16.511719 22.386719 16.550781 22.6875 16.460938 C 21.9375 15.980469 21.363281 15.28125 21.035156 14.449219 Z M 21.035156 14.449219 " fill-opacity="1" fill-rule="nonzero"/><path fill="#1d1d1b" d="M 11.917969 23.582031 C 11.902344 23.582031 11.886719 23.578125 11.871094 23.574219 C 11.796875 23.550781 11.753906 23.464844 11.777344 23.386719 C 11.878906 23.078125 12.113281 22.808594 12.425781 22.652344 C 12.742188 22.492188 13.09375 22.460938 13.402344 22.566406 C 13.488281 22.597656 13.574219 22.636719 13.65625 22.675781 C 13.8125 22.75 13.960938 22.820312 14.105469 22.804688 C 14.3125 22.785156 14.464844 22.617188 14.636719 22.417969 C 14.808594 22.226562 14.988281 22.027344 15.246094 21.945312 C 15.554688 21.847656 15.84375 21.957031 16.121094 22.0625 C 16.300781 22.128906 16.46875 22.191406 16.632812 22.199219 C 16.988281 22.21875 17.339844 21.953125 17.417969 21.605469 C 17.4375 21.527344 17.515625 21.476562 17.59375 21.496094 C 17.675781 21.515625 17.722656 21.59375 17.703125 21.675781 C 17.59375 22.164062 17.117188 22.527344 16.617188 22.496094 C 16.40625 22.484375 16.210938 22.410156 16.019531 22.339844 C 15.773438 22.246094 15.542969 22.160156 15.332031 22.226562 C 15.152344 22.285156 15.007812 22.445312 14.859375 22.617188 C 14.65625 22.839844 14.453125 23.074219 14.128906 23.101562 C 13.90625 23.121094 13.71875 23.03125 13.53125 22.945312 C 13.453125 22.910156 13.382812 22.875 13.308594 22.847656 C 13.074219 22.769531 12.800781 22.792969 12.558594 22.917969 C 12.316406 23.039062 12.132812 23.246094 12.058594 23.480469 C 12.039062 23.542969 11.980469 23.582031 11.917969 23.582031 Z M 11.917969 23.582031 " fill-opacity="1" fill-rule="nonzero"/><path fill="#1d1d1b" d="M 15.320312 25.144531 C 15.25 25.144531 15.191406 25.097656 15.175781 25.027344 C 15.101562 24.65625 15.417969 24.324219 15.761719 24.246094 C 16.03125 24.183594 16.292969 24.234375 16.550781 24.28125 C 16.585938 24.289062 16.625 24.296875 16.664062 24.300781 C 16.890625 24.34375 17.179688 24.375 17.386719 24.246094 C 17.492188 24.175781 17.582031 24.066406 17.671875 23.953125 C 17.804688 23.785156 17.957031 23.59375 18.195312 23.527344 C 18.433594 23.457031 18.664062 23.542969 18.871094 23.617188 C 18.988281 23.660156 19.101562 23.699219 19.207031 23.710938 C 19.382812 23.734375 19.566406 23.667969 19.710938 23.53125 C 19.855469 23.394531 19.933594 23.214844 19.925781 23.039062 C 19.925781 22.957031 19.988281 22.890625 20.070312 22.886719 C 20.148438 22.886719 20.21875 22.945312 20.222656 23.027344 C 20.230469 23.292969 20.117188 23.554688 19.910156 23.746094 C 19.699219 23.941406 19.433594 24.035156 19.175781 24.007812 C 19.03125 23.988281 18.898438 23.941406 18.769531 23.894531 C 18.585938 23.828125 18.425781 23.769531 18.273438 23.8125 C 18.128906 23.851562 18.019531 23.992188 17.902344 24.136719 C 17.796875 24.265625 17.691406 24.402344 17.542969 24.496094 C 17.25 24.679688 16.890625 24.644531 16.613281 24.59375 C 16.574219 24.585938 16.535156 24.578125 16.496094 24.574219 C 16.257812 24.527344 16.035156 24.484375 15.828125 24.53125 C 15.625 24.582031 15.425781 24.777344 15.464844 24.964844 C 15.480469 25.046875 15.429688 25.125 15.351562 25.140625 C 15.339844 25.144531 15.332031 25.144531 15.320312 25.144531 Z M 15.320312 25.144531 " fill-opacity="1" fill-rule="nonzero"/><path fill="#f7be2f" d="M 37.492188 17.226562 C 37.492188 17.457031 37.449219 17.671875 37.363281 17.882812 C 37.277344 18.09375 37.15625 18.277344 36.996094 18.4375 C 36.835938 18.597656 36.652344 18.722656 36.445312 18.808594 C 36.238281 18.894531 36.023438 18.941406 35.796875 18.941406 C 35.570312 18.941406 35.355469 18.894531 35.148438 18.808594 C 34.941406 18.722656 34.757812 18.597656 34.597656 18.4375 C 34.4375 18.277344 34.316406 18.09375 34.230469 17.882812 C 34.144531 17.671875 34.101562 17.457031 34.101562 17.226562 C 34.101562 17 34.144531 16.78125 34.230469 16.574219 C 34.316406 16.363281 34.4375 16.179688 34.597656 16.019531 C 34.757812 15.859375 34.941406 15.734375 35.148438 15.648438 C 35.355469 15.558594 35.570312 15.515625 35.796875 15.515625 C 36.023438 15.515625 36.238281 15.558594 36.445312 15.648438 C 36.652344 15.734375 36.835938 15.859375 36.996094 16.019531 C 37.15625 16.179688 37.277344 16.363281 37.363281 16.574219 C 37.449219 16.78125 37.492188 17 37.492188 17.226562 Z M 37.492188 17.226562 " fill-opacity="1" fill-rule="nonzero"/><path fill="#1d1d1b" d="M 35.796875 19.085938 C 34.78125 19.085938 33.957031 18.253906 33.957031 17.226562 C 33.957031 16.203125 34.78125 15.367188 35.796875 15.367188 C 36.8125 15.367188 37.640625 16.203125 37.640625 17.226562 C 37.640625 18.253906 36.8125 19.085938 35.796875 19.085938 Z M 35.796875 15.664062 C 34.941406 15.664062 34.25 16.367188 34.25 17.226562 C 34.25 18.089844 34.945312 18.789062 35.796875 18.789062 C 36.648438 18.789062 37.34375 18.089844 37.34375 17.226562 C 37.34375 16.367188 36.652344 15.664062 35.796875 15.664062 Z M 35.796875 15.664062 " fill-opacity="1" fill-rule="nonzero"/><path fill="#1d1d1b" d="M 22.570312 37.960938 C 22.570312 37.960938 22.570312 37.960938 22.566406 37.960938 C 22.484375 37.957031 22.421875 37.890625 22.425781 37.808594 L 22.441406 37.152344 C 22.445312 37.074219 22.511719 37.007812 22.589844 37.007812 C 22.589844 37.007812 22.59375 37.007812 22.59375 37.007812 C 22.675781 37.011719 22.738281 37.078125 22.734375 37.160156 L 22.71875 37.816406 C 22.714844 37.894531 22.652344 37.960938 22.570312 37.960938 Z M 22.570312 37.960938 " fill-opacity="1" fill-rule="nonzero"/><path fill="#1d1d1b" d="M 23.214844 38.300781 C 23.214844 38.300781 23.210938 38.300781 23.207031 38.300781 C 23.128906 38.296875 23.066406 38.226562 23.070312 38.144531 L 23.117188 37.175781 C 23.121094 37.09375 23.1875 37.03125 23.269531 37.035156 C 23.351562 37.039062 23.414062 37.109375 23.410156 37.1875 L 23.363281 38.160156 C 23.359375 38.238281 23.292969 38.300781 23.214844 38.300781 Z M 23.214844 38.300781 " fill-opacity="1" fill-rule="nonzero"/><path fill="#1d1d1b" d="M 23.902344 38.578125 C 23.820312 38.578125 23.753906 38.511719 23.753906 38.429688 L 23.769531 36.765625 C 23.769531 36.6875 23.835938 36.621094 23.914062 36.621094 L 23.917969 36.621094 C 23.996094 36.621094 24.0625 36.6875 24.0625 36.769531 L 24.050781 38.433594 C 24.050781 38.511719 23.980469 38.578125 23.902344 38.578125 Z M 23.902344 38.578125 " fill-opacity="1" fill-rule="nonzero"/><path fill="#1d1d1b" d="M 24.421875 38.859375 C 24.421875 38.859375 24.417969 38.859375 24.417969 38.859375 C 24.335938 38.855469 24.273438 38.785156 24.277344 38.703125 L 24.355469 36.761719 C 24.359375 36.679688 24.429688 36.617188 24.507812 36.621094 C 24.589844 36.625 24.652344 36.691406 24.652344 36.773438 L 24.570312 38.714844 C 24.566406 38.796875 24.5 38.859375 24.421875 38.859375 Z M 24.421875 38.859375 " fill-opacity="1" fill-rule="nonzero"/></svg>