<svg xmlns="http://www.w3.org/2000/svg" xmlns:xlink="http://www.w3.org/1999/xlink" width="67" zoomAndPan="magnify" viewBox="0 0 50.25 46.5" height="62" preserveAspectRatio="xMidYMid meet" version="1.0"><defs><clipPath id="d522c34359"><path d="M 4.582031 7.679688 L 41 7.679688 L 41 33 L 4.582031 33 Z M 4.582031 7.679688 " clip-rule="nonzero"/></clipPath><clipPath id="a22073ff34"><path d="M 28 33 L 38 33 L 38 42.414062 L 28 42.414062 Z M 28 33 " clip-rule="nonzero"/></clipPath><clipPath id="8cff9b333e"><path d="M 36 33 L 45.226562 33 L 45.226562 42.414062 L 36 42.414062 Z M 36 33 " clip-rule="nonzero"/></clipPath></defs><g clip-path="url(#d522c34359)"><path fill="#3b5892" d="M 31 32.726562 L 6.714844 32.726562 C 5.554688 32.726562 4.585938 31.757812 4.585938 30.609375 L 4.585938 9.824219 C 4.585938 8.652344 5.554688 7.710938 6.714844 7.710938 L 38.320312 7.710938 C 39.480469 7.710938 40.453125 8.652344 40.453125 9.824219 L 40.453125 22.472656 C 40.453125 22.824219 40.074219 23.0625 39.742188 22.875 C 35.527344 20.640625 30.339844 23.671875 30.339844 28.492188 C 30.339844 31.242188 31.757812 31.832031 31.425781 32.464844 C 31.355469 32.628906 31.191406 32.726562 31 32.726562 Z M 31 32.726562 " fill-opacity="1" fill-rule="evenodd"/></g><g clip-path="url(#a22073ff34)"><path fill="#e13641" d="M 32.847656 42.484375 C 32.585938 42.484375 32.375 42.269531 32.375 42.011719 L 32.398438 38.34375 L 29.199219 40.175781 C 28.773438 40.4375 28.300781 39.964844 28.539062 39.542969 L 32.019531 33.570312 C 32.585938 32.582031 33.371094 34.839844 36.734375 34.839844 C 37.113281 34.839844 37.347656 35.214844 37.160156 35.546875 L 33.25 42.246094 C 33.15625 42.386719 33.015625 42.484375 32.847656 42.484375 Z M 32.847656 42.484375 " fill-opacity="1" fill-rule="evenodd"/></g><g clip-path="url(#8cff9b333e)"><path fill="#fa3c48" d="M 40.644531 42.484375 C 40.476562 42.484375 40.3125 42.386719 40.242188 42.246094 L 36.332031 35.546875 C 36.144531 35.214844 36.378906 34.839844 36.734375 34.839844 C 40.097656 34.839844 40.902344 32.582031 41.472656 33.570312 L 44.953125 39.542969 C 45.191406 39.964844 44.71875 40.4375 44.292969 40.203125 L 41.09375 38.34375 L 41.117188 42.011719 C 41.117188 42.269531 40.929688 42.484375 40.644531 42.484375 Z M 40.644531 42.484375 " fill-opacity="1" fill-rule="evenodd"/></g><path fill="#e4eaf8" d="M 29.933594 29.949219 L 13.707031 29.949219 C 13.445312 29.949219 13.230469 29.738281 13.230469 29.480469 C 13.230469 26.542969 10.8125 24.144531 7.851562 24.144531 C 7.59375 24.144531 7.378906 23.933594 7.378906 23.671875 L 7.378906 16.738281 C 7.378906 16.480469 7.59375 16.269531 7.851562 16.269531 C 10.8125 16.269531 13.230469 13.894531 13.230469 10.933594 C 13.230469 10.671875 13.445312 10.460938 13.707031 10.460938 L 31.332031 10.460938 C 31.59375 10.460938 31.804688 10.671875 31.804688 10.933594 C 31.804688 13.894531 34.222656 16.269531 37.183594 16.269531 C 37.445312 16.269531 37.65625 16.480469 37.65625 16.738281 L 37.65625 21.675781 C 37.65625 22.261719 36.992188 22.148438 36.734375 22.148438 C 32.847656 22.148438 29.839844 25.578125 30.40625 29.410156 C 30.453125 29.695312 30.21875 29.949219 29.933594 29.949219 Z M 29.933594 29.949219 " fill-opacity="1" fill-rule="evenodd"/><path fill="#ff9b22" d="M 36.734375 35.78125 C 32.683594 35.78125 29.386719 32.515625 29.386719 28.492188 C 29.386719 24.472656 32.683594 21.203125 36.734375 21.203125 C 40.785156 21.203125 44.078125 24.472656 44.078125 28.492188 C 44.078125 32.515625 40.785156 35.78125 36.734375 35.78125 Z M 36.734375 35.78125 " fill-opacity="1" fill-rule="evenodd"/><path fill="#ffcc00" d="M 36.734375 33.640625 C 33.890625 33.640625 31.546875 31.335938 31.546875 28.492188 C 31.546875 25.648438 33.867188 23.320312 36.734375 23.320312 C 39.601562 23.320312 41.945312 25.648438 41.945312 28.492188 C 41.945312 31.335938 39.601562 33.640625 36.734375 33.640625 Z M 36.734375 33.640625 " fill-opacity="1" fill-rule="evenodd"/><path fill="#576574" d="M 28.441406 26.328125 L 14.390625 26.328125 C 13.777344 26.328125 13.777344 25.390625 14.390625 25.390625 L 28.441406 25.390625 C 29.054688 25.390625 29.082031 26.328125 28.441406 26.328125 Z M 28.441406 26.328125 " fill-opacity="1" fill-rule="evenodd"/><path fill="#576574" d="M 31.027344 22.898438 L 14.011719 22.898438 C 13.398438 22.898438 13.398438 21.957031 14.011719 21.957031 L 31.050781 21.957031 C 31.664062 21.957031 31.664062 22.898438 31.027344 22.898438 Z M 31.027344 22.898438 " fill-opacity="1" fill-rule="evenodd"/><path fill="#576574" d="M 31.027344 19.488281 L 14.011719 19.488281 C 13.398438 19.488281 13.398438 18.546875 14.011719 18.546875 L 31.050781 18.546875 C 31.664062 18.546875 31.664062 19.488281 31.027344 19.488281 Z M 31.027344 19.488281 " fill-opacity="1" fill-rule="evenodd"/><path fill="#576574" d="M 27.660156 17.117188 L 17.402344 17.117188 C 16.242188 17.117188 16.429688 15.796875 16.429688 15.023438 C 16.429688 14.503906 16.855469 14.082031 17.402344 14.082031 L 27.660156 14.082031 C 28.796875 14.082031 28.609375 15.398438 28.609375 16.148438 C 28.609375 16.691406 28.179688 17.117188 27.660156 17.117188 Z M 27.660156 17.117188 " fill-opacity="1" fill-rule="evenodd"/></svg>